<svg xmlns="http://www.w3.org/2000/svg" xmlns:svg="http://www.w3.org/2000/svg" xmlns:xlink="http://www.w3.org/1999/xlink" id="svg2" width="640" height="480" version="1.1" viewBox="-5 -5 12.8 9.6"><metadata id="metadata23"/><title id="title4">Flag of the People&apos;s Republic of China</title><defs id="defs8"><polygon id="s" points="-301930 415571 0 -513674 301930 415571 -488533 -158734 488533 -158734" transform="scale(1.94676e-6,1.94676e-6)" style="fill:#ffde00"/><clipPath id="clipPath3010" clipPathUnits="userSpaceOnUse"><rect style="fill:#000;stroke:none" id="rect3012" width="26.667" height="20" x="-5" y="-15.4"/></clipPath></defs><g id="flag" clip-path="url(#clipPath3010)" transform="matrix(0.48,0,0,0.48,-2.6000001,2.3920003)"><rect style="fill:#de2910" id="rect6" width="30" height="20" x="-5" y="-15.4"/><use id="use11" width="30" height="20" x="0" y="0" transform="matrix(3,0,0,3,0,-10.4)" xlink:href="#s"/><use id="use13" width="30" height="20" x="0" y="0" transform="matrix(-0.51449575,-0.85749293,0.85749293,-0.51449575,5,-13.4)" xlink:href="#s"/><use id="use15" width="30" height="20" x="0" y="0" transform="matrix(-0.14142135,-0.98994949,0.98994949,-0.14142135,7,-11.4)" xlink:href="#s"/><use id="use17" width="30" height="20" x="0" y="0" transform="matrix(0.27472113,-0.96152395,0.96152395,0.27472113,7,-8.4)" xlink:href="#s"/><use id="use19" width="30" height="20" x="0" y="0" transform="matrix(0.62469505,-0.78086881,0.78086881,0.62469505,5,-6.4)" xlink:href="#s"/></g></svg>