<svg xmlns="http://www.w3.org/2000/svg" xmlns:xlink="http://www.w3.org/1999/xlink" xmlns:xodm="http://www.corel.com/coreldraw/odm/2003" width="640" height="480" x="0" y="0" image-rendering="optimizeQuality" preserveAspectRatio="xMidYMid meet" shape-rendering="geometricPrecision" text-rendering="geometricPrecision" version="1.1" viewBox="0 0 480 640" xml:space="preserve"><g id="Layer_x0020_1"><metadata id="CorelCorpID_0Corel-Layer"/><g id="_1421394342400"><g><polygon fill="#343434" fill-rule="nonzero" points="392.07 0 383.5 29.11 383.5 873.74 392.07 882.29 784.13 650.54" transform="translate(50) scale(0.5, 0.5)"/><polygon fill="#8C8C8C" fill-rule="nonzero" points="392.07 0 0 650.54 392.07 882.29 392.07 472.33" transform="translate(50) scale(0.5, 0.5)"/><polygon fill="#3C3C3B" fill-rule="nonzero" points="392.07 956.52 387.24 962.41 387.24 1263.28 392.07 1277.38 784.37 724.89" transform="translate(50) scale(0.5, 0.5)"/><polygon fill="#8C8C8C" fill-rule="nonzero" points="392.07 1277.38 392.07 956.52 0 724.89" transform="translate(50) scale(0.5, 0.5)"/><polygon fill="#141414" fill-rule="nonzero" points="392.07 882.29 784.13 650.54 392.07 472.33" transform="translate(50) scale(0.5, 0.5)"/><polygon fill="#393939" fill-rule="nonzero" points="0 650.54 392.07 882.29 392.07 472.33" transform="translate(50) scale(0.5, 0.5)"/></g></g></g></svg>