<svg viewBox="7.98 -0.02 24.78 40.07">
	<path data-name="Rechteck 13" transform="translate(0 .03)" style="fill:none" d="M0 0h40v40H0z"></path>
	<g data-name="Ebene 2">
	  <path data-name="Pfad 25" d="M165.132 200.79v-10.124l12.375-7.286z" transform="translate(-144.758 -160.76)" style="fill:var(--body-color)"></path>
	  <path data-name="Linie 4" transform="translate(8 22.62)" style="fill:var(--body-color)" d="m0 0 12.374 17.41"></path>
		<path data-name="Pfad 26" d="M107.764 200.79v-10.124L95.39 183.38" transform="translate(-87.39 -160.76)" style="fill:var(--body-color)"></path>
		<path data-name="Pfad 27" d="M138.035 68.872v-13l-5.845 9.707z" transform="translate(-117.662 -55.87)" style="fill:var(--font-color)"></path>
		<path data-name="Pfad 28" d="m95.52 127.209 12.351 7.263v-12.945l-6.6-3.867z" transform="translate(-87.497 -106.699)" style="fill:var(--font-color)"></path>
		<path data-name="Pfad 29" d="m170.913 65.455-5.773-9.585v13z" transform="translate(-144.766 -55.87)" style="fill:var(--body-color)"></path>
		<path data-name="Pfad 30" d="m171.721 117.48-6.581 3.9v12.945l12.351-7.263z" transform="translate(-144.766 -106.55)" style="fill:var(--body-color)"></path>
		<path data-name="Pfad 31" d="m95.39 145.142 12.351-5.682.021 2.775-.021 10.17z" transform="translate(-87.39 -124.631)" style="fill:var(--body-color)"></path>
	</g>
</svg>