<svg xmlns="http://www.w3.org/2000/svg" xmlns:svg="http://www.w3.org/2000/svg" xmlns:xlink="http://www.w3.org/1999/xlink" id="svg2" width="640" height="480" version="1.1"><metadata id="metadata43"/><desc id="desc4">European flag</desc><defs id="defs6"><g id="s"><g id="c"><path id="t" d="M 0,0 0,1 0.5,1 Z" transform="matrix(0.95105652,0.30901699,-0.30901699,0.95105652,0,-1)"/><use id="use11" width="100%" height="100%" x="0" y="0" transform="scale(-1,1)" xlink:href="#t"/></g><g id="a"><use id="use14" width="100%" height="100%" x="0" y="0" transform="matrix(0.30901699,0.95105652,-0.95105652,0.30901699,0,0)" xlink:href="#c"/><use id="use16" width="100%" height="100%" x="0" y="0" transform="matrix(-0.80901699,0.58778525,-0.58778525,-0.80901699,0,0)" xlink:href="#c"/></g><use id="use18" width="100%" height="100%" x="0" y="0" transform="scale(-1,1)" xlink:href="#a"/></g></defs><rect id="rect20" width="642.902" height="483.357" x="2.832" y="2.308" style="fill:#039"/><g id="g22" transform="matrix(23.811189,0,0,23.981809,322.28322,245.88665)" style="fill:#fc0"><use id="use24" width="100%" height="100%" x="0" y="-6" xlink:href="#s"/><use id="use26" width="100%" height="100%" x="0" y="6" xlink:href="#s"/><g id="l"><use id="use29" width="100%" height="100%" x="-6" y="0" xlink:href="#s"/><use id="use31" width="100%" height="100%" x="0" y="0" transform="matrix(-0.80901699,-0.58778525,0.58778525,-0.80901699,-3,-5.1961524)" xlink:href="#s"/><use id="use33" width="100%" height="100%" x="0" y="0" transform="matrix(-0.80901699,0.58778525,-0.58778525,-0.80901699,-5.1961524,-3)" xlink:href="#s"/><use id="use35" width="100%" height="100%" x="0" y="0" transform="matrix(0.30901699,0.95105652,-0.95105652,0.30901699,-5.1961524,3)" xlink:href="#s"/><use id="use37" width="100%" height="100%" x="0" y="0" transform="matrix(0.30901699,0.95105652,-0.95105652,0.30901699,-3,5.1961524)" xlink:href="#s"/></g><use id="use39" width="100%" height="100%" x="0" y="0" transform="scale(-1,1)" xlink:href="#l"/></g></svg>