<svg width="30" height="26" viewBox="0 0 30 26" fill="none" xmlns="http://www.w3.org/2000/svg">
	<g clip-path="url(#clip0_513_4696)">
	  <path d="M15.5002 12.0469C16.2002 13.27 16.8728 14.4468 17.6145 15.7451C20.7184 10.4403 23.7514 5.25692 26.8277 0H2.15936C1.45682 1.20493 0.766792 2.38838 0 3.70405H20.3747C18.7109 6.55194 17.1164 9.28081 15.5002 12.0469ZM17.597 17.9244C15.9324 15.0361 14.3521 12.2956 12.7643 9.54031H8.50564C11.5411 14.8146 14.5407 20.0261 17.6003 25.3424C21.7813 18.2153 25.8864 11.218 30 4.20487C29.2924 2.97845 28.6082 1.79335 27.8698 0.514039C24.4256 6.35195 21.0456 12.0808 17.597 17.9244ZM0.0575719 4.77429C4.2111 11.8684 8.30788 18.8658 12.3788 25.821H16.67C13.2766 19.9888 9.92574 14.2303 6.51898 8.3767H16.2603C16.962 7.18995 17.6504 6.02634 18.3905 4.77429H0.0575719Z" style="fill:var(--body-color-inverted)"/>
	</g>
	<defs>
		<clipPath id="clip0_513_4696">
	    <rect width="30" height="26" fill="white"/>
		</clipPath>
	</defs>
</svg>