<svg xmlns="http://www.w3.org/2000/svg" id="svg1" width="640" height="480" version="1.1"><metadata id="metadata2995"/><defs id="defs3"><clipPath id="clipPath8673" clipPathUnits="userSpaceOnUse"><rect id="rect8675" width="682.67" height="512" x="-85.333" y="0" fill-opacity=".67"/></clipPath></defs><g id="flag" clip-path="url(#clipPath8673)" transform="matrix(.93750 0 0 .93750 80 .0000026825)"><g id="g578" stroke-width="1pt" transform="matrix(17.067 0 0 17.067 -256 -0.0000024)"><rect id="rect124" width="60" height="30" x="0" y="0" fill="#006"/><g id="g584"><path id="path146" fill="#fff" d="m0 0v3.3541l53.292 26.646h6.708v-3.354l-53.292-26.646h-6.708zm60 0v3.354l-53.292 26.646h-6.708v-3.354l53.292-26.646h6.708z"/><path id="path136" fill="#fff" d="m25 0v30h10v-30h-10zm-25 10v10h60v-10h-60z"/><path id="path141" fill="#c00" d="m0 12v6h60v-6h-60zm27-12v30h6v-30h-6z"/><path id="path150" fill="#c00" d="m0 30 20-10h4.472l-20 10h-4.472zm0-30 20 10h-4.472l-15.528-7.7639v-2.2361zm35.528 10 20-10h4.472l-20 10h-4.472zm24.472 20-20-10h4.472l15.528 7.764v2.236z"/></g></g></g></svg>