<svg width="55" height="55" viewBox="0 0 55 55" fill="none" xmlns="http://www.w3.org/2000/svg">
<g clip-path="url(#clip0_5574_155651)">
<circle cx="27.5" cy="27.5" r="27.5" fill="#00193C"/>
<path d="M17.2061 31C18.5786 31 19.9176 30.4967 21 29.5759L12.2964 20C10.1986 22.9833 10.7007 27.2801 13.4122 29.5882C14.5058 30.4967 15.8336 31 17.2061 31Z" fill="#FBF1F1"/>
<path d="M44 24.1733C44 22.6635 43.5424 21.1906 42.7054 20L34 29.574C36.7121 31.8816 40.6071 31.3292 42.7054 28.3466C43.5424 27.1559 44 25.683 44 24.1733Z" fill="#FBF1F1"/>
<path d="M48.4623 15L44.5125 18.9289C47.6953 22.7211 47.1915 28.3697 43.3791 31.5356C40.0362 34.3143 35.182 34.3143 31.839 31.5356L27.5 35.8516L23.1724 31.5469C19.36 34.7128 13.6815 34.2118 10.4988 30.4195C7.70537 27.0942 7.70537 22.2656 10.4988 18.9403L8.47242 16.9246L6.54906 15C4.225 18.8036 3 23.1767 3 27.6294C3 41.0902 13.9677 52 27.5 52C41.0322 52 51.9999 41.0902 51.9999 27.6294C52.0114 23.1767 50.7749 18.8036 48.4623 15Z" fill="#FBF1F1"/>
<path d="M45.2774 10.5774C35.9178 0.803525 20.3684 0.437717 10.5495 9.75436C10.2624 10.0287 9.98675 10.3031 9.72261 10.5774C9.11396 11.2176 8.53975 11.8806 8 12.5779L27.5 32L47 12.5779C46.4717 11.8806 45.886 11.2176 45.2774 10.5774ZM27.5 6.19918C33.2421 6.19918 38.5936 8.40545 42.6131 12.4293L27.5 27.4731L12.3869 12.4293C16.4064 8.40545 21.758 6.19918 27.5 6.19918Z" fill="#FBF1F1"/>
</g>
<defs>
<clipPath id="clip0_5574_155651">
<rect width="55" height="55" fill="white"/>
</clipPath>
</defs>
</svg>