<svg xmlns="http://www.w3.org/2000/svg" id="svg153" width="640" height="480" version="1.1"><metadata id="metadata3151"/><desc id="desc3066">The United States of America flag, produced by Daniel McRae</desc><defs id="defs155"><clipPath id="clipPath4293" clipPathUnits="userSpaceOnUse"><rect id="rect4295" width="682.67" height="512" x="0" y="0" fill-opacity=".67"/></clipPath></defs><g id="flag" fill-rule="evenodd" clip-path="url(#clipPath4293)" transform="matrix(.93750 0 0 .93750 0 -.0000049038)"><g id="g390" stroke-width="1pt" transform="matrix(3.9385 0 0 3.9385 0 .000005)"><g id="g169" fill="#bd3d44"><rect id="rect156" width="247" height="10" x="0" y="0"/><rect id="rect158" width="247" height="10" x="0" y="20"/><rect id="rect160" width="247" height="10" x="0" y="40"/><rect id="rect162" width="247" height="10" x="0" y="60"/><rect id="rect164" width="247" height="10" x="0" y="80"/><rect id="rect166" width="247" height="10" x="0" y="100"/><rect id="rect168" width="247" height="10" x="0" y="120"/></g><g id="g177" fill="#fff"><rect id="rect157" width="247" height="10" x="0" y="10"/><rect id="rect159" width="247" height="10" x="0" y="30"/><rect id="rect161" width="247" height="10" x="0" y="50"/><rect id="rect163" width="247" height="10" x="0" y="70"/><rect id="rect165" width="247" height="10" x="0" y="90"/><rect id="rect167" width="247" height="10" x="0" y="110"/></g></g><rect id="rect200" width="389.12" height="275.69" x="0" y="0" fill="#192f5d" stroke-width="1pt"/><g id="g274" fill="#fff" transform="matrix(3.9385 0 0 3.9385 0 .000005)"><g id="g218"><g id="g194"><polygon id="polygon207" d="M 1.3084868e-6,-4.0040002 0.89895399,-1.237304 3.8080309,-1.2373029 1.4545381,0.47260808 2.3534912,3.239305 0,1.5293919 l -2.3534933,1.7099115 0.8989552,-2.76669531 -2.353492,-1.70991339 2.9090761,1.3e-6 z" points="0 -4.004 .899 -1.237 3.808 -1.237 1.454 .473 2.353 3.239 0 1.529 -2.353 3.239 -1.454 .473 -3.808 -1.237 -.899 -1.237" transform="translate(8.2333 7)"/><polygon id="polygon188" d="M 1.3084868e-6,-4.0040002 0.89895399,-1.237304 3.8080309,-1.2373029 1.4545381,0.47260808 2.3534912,3.239305 0,1.5293919 l -2.3534933,1.7099115 0.8989552,-2.76669531 -2.353492,-1.70991339 2.9090761,1.3e-6 z" points="0 -4.004 .899 -1.237 3.808 -1.237 1.454 .473 2.353 3.239 0 1.529 -2.353 3.239 -1.454 .473 -3.808 -1.237 -.899 -1.237" transform="translate(24.7,7)"/><polygon id="polygon189" d="M 1.3084868e-6,-4.0040002 0.89895399,-1.237304 3.8080309,-1.2373029 1.4545381,0.47260808 2.3534912,3.239305 0,1.5293919 l -2.3534933,1.7099115 0.8989552,-2.76669531 -2.353492,-1.70991339 2.9090761,1.3e-6 z" points="0 -4.004 .899 -1.237 3.808 -1.237 1.454 .473 2.353 3.239 0 1.529 -2.353 3.239 -1.454 .473 -3.808 -1.237 -.899 -1.237" transform="translate(41.167 7)"/><polygon id="polygon190" d="M 1.3084868e-6,-4.0040002 0.89895399,-1.237304 3.8080309,-1.2373029 1.4545381,0.47260808 2.3534912,3.239305 0,1.5293919 l -2.3534933,1.7099115 0.8989552,-2.76669531 -2.353492,-1.70991339 2.9090761,1.3e-6 z" points="0 -4.004 .899 -1.237 3.808 -1.237 1.454 .473 2.353 3.239 0 1.529 -2.353 3.239 -1.454 .473 -3.808 -1.237 -.899 -1.237" transform="translate(57.633 7)"/><polygon id="polygon191" d="M 1.3084868e-6,-4.0040002 0.89895399,-1.237304 3.8080309,-1.2373029 1.4545381,0.47260808 2.3534912,3.239305 0,1.5293919 l -2.3534933,1.7099115 0.8989552,-2.76669531 -2.353492,-1.70991339 2.9090761,1.3e-6 z" points="0 -4.004 .899 -1.237 3.808 -1.237 1.454 .473 2.353 3.239 0 1.529 -2.353 3.239 -1.454 .473 -3.808 -1.237 -.899 -1.237" transform="translate(74.1,7)"/><polygon id="polygon192" d="M 1.3084868e-6,-4.0040002 0.89895399,-1.237304 3.8080309,-1.2373029 1.4545381,0.47260808 2.3534912,3.239305 0,1.5293919 l -2.3534933,1.7099115 0.8989552,-2.76669531 -2.353492,-1.70991339 2.9090761,1.3e-6 z" points="0 -4.004 .899 -1.237 3.808 -1.237 1.454 .473 2.353 3.239 0 1.529 -2.353 3.239 -1.454 .473 -3.808 -1.237 -.899 -1.237" transform="translate(90.567 7)"/></g><g id="g205"><polygon id="polygon193" d="M 1.3084868e-6,-4.0040002 0.89895399,-1.237304 3.8080309,-1.2373029 1.4545381,0.47260808 2.3534912,3.239305 0,1.5293919 l -2.3534933,1.7099115 0.8989552,-2.76669531 -2.353492,-1.70991339 2.9090761,1.3e-6 z" points="0 -4.004 .899 -1.237 3.808 -1.237 1.454 .473 2.353 3.239 0 1.529 -2.353 3.239 -1.454 .473 -3.808 -1.237 -.899 -1.237" transform="translate(16.467 14)"/><polygon id="polygon201" d="M 1.3084868e-6,-4.0040002 0.89895399,-1.237304 3.8080309,-1.2373029 1.4545381,0.47260808 2.3534912,3.239305 0,1.5293919 l -2.3534933,1.7099115 0.8989552,-2.76669531 -2.353492,-1.70991339 2.9090761,1.3e-6 z" points="0 -4.004 .899 -1.237 3.808 -1.237 1.454 .473 2.353 3.239 0 1.529 -2.353 3.239 -1.454 .473 -3.808 -1.237 -.899 -1.237" transform="translate(32.933 14)"/><polygon id="polygon202" d="M 1.3084868e-6,-4.0040002 0.89895399,-1.237304 3.8080309,-1.2373029 1.4545381,0.47260808 2.3534912,3.239305 0,1.5293919 l -2.3534933,1.7099115 0.8989552,-2.76669531 -2.353492,-1.70991339 2.9090761,1.3e-6 z" points="0 -4.004 .899 -1.237 3.808 -1.237 1.454 .473 2.353 3.239 0 1.529 -2.353 3.239 -1.454 .473 -3.808 -1.237 -.899 -1.237" transform="translate(49.4,14)"/><polygon id="polygon203" d="M 1.3084868e-6,-4.0040002 0.89895399,-1.237304 3.8080309,-1.2373029 1.4545381,0.47260808 2.3534912,3.239305 0,1.5293919 l -2.3534933,1.7099115 0.8989552,-2.76669531 -2.353492,-1.70991339 2.9090761,1.3e-6 z" points="0 -4.004 .899 -1.237 3.808 -1.237 1.454 .473 2.353 3.239 0 1.529 -2.353 3.239 -1.454 .473 -3.808 -1.237 -.899 -1.237" transform="translate(65.867 14)"/><polygon id="polygon204" d="M 1.3084868e-6,-4.0040002 0.89895399,-1.237304 3.8080309,-1.2373029 1.4545381,0.47260808 2.3534912,3.239305 0,1.5293919 l -2.3534933,1.7099115 0.8989552,-2.76669531 -2.353492,-1.70991339 2.9090761,1.3e-6 z" points="0 -4.004 .899 -1.237 3.808 -1.237 1.454 .473 2.353 3.239 0 1.529 -2.353 3.239 -1.454 .473 -3.808 -1.237 -.899 -1.237" transform="translate(82.333 14)"/></g></g><g id="g232" transform="translate(0,14)"><g id="g233"><polygon id="polygon234" d="M 1.3084868e-6,-4.0040002 0.89895399,-1.237304 3.8080309,-1.2373029 1.4545381,0.47260808 2.3534912,3.239305 0,1.5293919 l -2.3534933,1.7099115 0.8989552,-2.76669531 -2.353492,-1.70991339 2.9090761,1.3e-6 z" points="0 -4.004 .899 -1.237 3.808 -1.237 1.454 .473 2.353 3.239 0 1.529 -2.353 3.239 -1.454 .473 -3.808 -1.237 -.899 -1.237" transform="translate(8.2333 7)"/><polygon id="polygon235" d="M 1.3084868e-6,-4.0040002 0.89895399,-1.237304 3.8080309,-1.2373029 1.4545381,0.47260808 2.3534912,3.239305 0,1.5293919 l -2.3534933,1.7099115 0.8989552,-2.76669531 -2.353492,-1.70991339 2.9090761,1.3e-6 z" points="0 -4.004 .899 -1.237 3.808 -1.237 1.454 .473 2.353 3.239 0 1.529 -2.353 3.239 -1.454 .473 -3.808 -1.237 -.899 -1.237" transform="translate(24.7,7)"/><polygon id="polygon236" d="M 1.3084868e-6,-4.0040002 0.89895399,-1.237304 3.8080309,-1.2373029 1.4545381,0.47260808 2.3534912,3.239305 0,1.5293919 l -2.3534933,1.7099115 0.8989552,-2.76669531 -2.353492,-1.70991339 2.9090761,1.3e-6 z" points="0 -4.004 .899 -1.237 3.808 -1.237 1.454 .473 2.353 3.239 0 1.529 -2.353 3.239 -1.454 .473 -3.808 -1.237 -.899 -1.237" transform="translate(41.167 7)"/><polygon id="polygon237" d="M 1.3084868e-6,-4.0040002 0.89895399,-1.237304 3.8080309,-1.2373029 1.4545381,0.47260808 2.3534912,3.239305 0,1.5293919 l -2.3534933,1.7099115 0.8989552,-2.76669531 -2.353492,-1.70991339 2.9090761,1.3e-6 z" points="0 -4.004 .899 -1.237 3.808 -1.237 1.454 .473 2.353 3.239 0 1.529 -2.353 3.239 -1.454 .473 -3.808 -1.237 -.899 -1.237" transform="translate(57.633 7)"/><polygon id="polygon238" d="M 1.3084868e-6,-4.0040002 0.89895399,-1.237304 3.8080309,-1.2373029 1.4545381,0.47260808 2.3534912,3.239305 0,1.5293919 l -2.3534933,1.7099115 0.8989552,-2.76669531 -2.353492,-1.70991339 2.9090761,1.3e-6 z" points="0 -4.004 .899 -1.237 3.808 -1.237 1.454 .473 2.353 3.239 0 1.529 -2.353 3.239 -1.454 .473 -3.808 -1.237 -.899 -1.237" transform="translate(74.1,7)"/><polygon id="polygon239" d="M 1.3084868e-6,-4.0040002 0.89895399,-1.237304 3.8080309,-1.2373029 1.4545381,0.47260808 2.3534912,3.239305 0,1.5293919 l -2.3534933,1.7099115 0.8989552,-2.76669531 -2.353492,-1.70991339 2.9090761,1.3e-6 z" points="0 -4.004 .899 -1.237 3.808 -1.237 1.454 .473 2.353 3.239 0 1.529 -2.353 3.239 -1.454 .473 -3.808 -1.237 -.899 -1.237" transform="translate(90.567 7)"/></g><g id="g240"><polygon id="polygon241" d="M 1.3084868e-6,-4.0040002 0.89895399,-1.237304 3.8080309,-1.2373029 1.4545381,0.47260808 2.3534912,3.239305 0,1.5293919 l -2.3534933,1.7099115 0.8989552,-2.76669531 -2.353492,-1.70991339 2.9090761,1.3e-6 z" points="0 -4.004 .899 -1.237 3.808 -1.237 1.454 .473 2.353 3.239 0 1.529 -2.353 3.239 -1.454 .473 -3.808 -1.237 -.899 -1.237" transform="translate(16.467 14)"/><polygon id="polygon242" d="M 1.3084868e-6,-4.0040002 0.89895399,-1.237304 3.8080309,-1.2373029 1.4545381,0.47260808 2.3534912,3.239305 0,1.5293919 l -2.3534933,1.7099115 0.8989552,-2.76669531 -2.353492,-1.70991339 2.9090761,1.3e-6 z" points="0 -4.004 .899 -1.237 3.808 -1.237 1.454 .473 2.353 3.239 0 1.529 -2.353 3.239 -1.454 .473 -3.808 -1.237 -.899 -1.237" transform="translate(32.933 14)"/><polygon id="polygon243" d="M 1.3084868e-6,-4.0040002 0.89895399,-1.237304 3.8080309,-1.2373029 1.4545381,0.47260808 2.3534912,3.239305 0,1.5293919 l -2.3534933,1.7099115 0.8989552,-2.76669531 -2.353492,-1.70991339 2.9090761,1.3e-6 z" points="0 -4.004 .899 -1.237 3.808 -1.237 1.454 .473 2.353 3.239 0 1.529 -2.353 3.239 -1.454 .473 -3.808 -1.237 -.899 -1.237" transform="translate(49.4,14)"/><polygon id="polygon244" d="M 1.3084868e-6,-4.0040002 0.89895399,-1.237304 3.8080309,-1.2373029 1.4545381,0.47260808 2.3534912,3.239305 0,1.5293919 l -2.3534933,1.7099115 0.8989552,-2.76669531 -2.353492,-1.70991339 2.9090761,1.3e-6 z" points="0 -4.004 .899 -1.237 3.808 -1.237 1.454 .473 2.353 3.239 0 1.529 -2.353 3.239 -1.454 .473 -3.808 -1.237 -.899 -1.237" transform="translate(65.867 14)"/><polygon id="polygon245" d="M 1.3084868e-6,-4.0040002 0.89895399,-1.237304 3.8080309,-1.2373029 1.4545381,0.47260808 2.3534912,3.239305 0,1.5293919 l -2.3534933,1.7099115 0.8989552,-2.76669531 -2.353492,-1.70991339 2.9090761,1.3e-6 z" points="0 -4.004 .899 -1.237 3.808 -1.237 1.454 .473 2.353 3.239 0 1.529 -2.353 3.239 -1.454 .473 -3.808 -1.237 -.899 -1.237" transform="translate(82.333 14)"/></g></g><g id="g246" transform="translate(0,28)"><g id="g247"><polygon id="polygon248" d="M 1.3084868e-6,-4.0040002 0.89895399,-1.237304 3.8080309,-1.2373029 1.4545381,0.47260808 2.3534912,3.239305 0,1.5293919 l -2.3534933,1.7099115 0.8989552,-2.76669531 -2.353492,-1.70991339 2.9090761,1.3e-6 z" points="0 -4.004 .899 -1.237 3.808 -1.237 1.454 .473 2.353 3.239 0 1.529 -2.353 3.239 -1.454 .473 -3.808 -1.237 -.899 -1.237" transform="translate(8.2333 7)"/><polygon id="polygon249" d="M 1.3084868e-6,-4.0040002 0.89895399,-1.237304 3.8080309,-1.2373029 1.4545381,0.47260808 2.3534912,3.239305 0,1.5293919 l -2.3534933,1.7099115 0.8989552,-2.76669531 -2.353492,-1.70991339 2.9090761,1.3e-6 z" points="0 -4.004 .899 -1.237 3.808 -1.237 1.454 .473 2.353 3.239 0 1.529 -2.353 3.239 -1.454 .473 -3.808 -1.237 -.899 -1.237" transform="translate(24.7,7)"/><polygon id="polygon250" d="M 1.3084868e-6,-4.0040002 0.89895399,-1.237304 3.8080309,-1.2373029 1.4545381,0.47260808 2.3534912,3.239305 0,1.5293919 l -2.3534933,1.7099115 0.8989552,-2.76669531 -2.353492,-1.70991339 2.9090761,1.3e-6 z" points="0 -4.004 .899 -1.237 3.808 -1.237 1.454 .473 2.353 3.239 0 1.529 -2.353 3.239 -1.454 .473 -3.808 -1.237 -.899 -1.237" transform="translate(41.167 7)"/><polygon id="polygon251" d="M 1.3084868e-6,-4.0040002 0.89895399,-1.237304 3.8080309,-1.2373029 1.4545381,0.47260808 2.3534912,3.239305 0,1.5293919 l -2.3534933,1.7099115 0.8989552,-2.76669531 -2.353492,-1.70991339 2.9090761,1.3e-6 z" points="0 -4.004 .899 -1.237 3.808 -1.237 1.454 .473 2.353 3.239 0 1.529 -2.353 3.239 -1.454 .473 -3.808 -1.237 -.899 -1.237" transform="translate(57.633 7)"/><polygon id="polygon252" d="M 1.3084868e-6,-4.0040002 0.89895399,-1.237304 3.8080309,-1.2373029 1.4545381,0.47260808 2.3534912,3.239305 0,1.5293919 l -2.3534933,1.7099115 0.8989552,-2.76669531 -2.353492,-1.70991339 2.9090761,1.3e-6 z" points="0 -4.004 .899 -1.237 3.808 -1.237 1.454 .473 2.353 3.239 0 1.529 -2.353 3.239 -1.454 .473 -3.808 -1.237 -.899 -1.237" transform="translate(74.1,7)"/><polygon id="polygon253" d="M 1.3084868e-6,-4.0040002 0.89895399,-1.237304 3.8080309,-1.2373029 1.4545381,0.47260808 2.3534912,3.239305 0,1.5293919 l -2.3534933,1.7099115 0.8989552,-2.76669531 -2.353492,-1.70991339 2.9090761,1.3e-6 z" points="0 -4.004 .899 -1.237 3.808 -1.237 1.454 .473 2.353 3.239 0 1.529 -2.353 3.239 -1.454 .473 -3.808 -1.237 -.899 -1.237" transform="translate(90.567 7)"/></g><g id="g254"><polygon id="polygon255" d="M 1.3084868e-6,-4.0040002 0.89895399,-1.237304 3.8080309,-1.2373029 1.4545381,0.47260808 2.3534912,3.239305 0,1.5293919 l -2.3534933,1.7099115 0.8989552,-2.76669531 -2.353492,-1.70991339 2.9090761,1.3e-6 z" points="0 -4.004 .899 -1.237 3.808 -1.237 1.454 .473 2.353 3.239 0 1.529 -2.353 3.239 -1.454 .473 -3.808 -1.237 -.899 -1.237" transform="translate(16.467 14)"/><polygon id="polygon256" d="M 1.3084868e-6,-4.0040002 0.89895399,-1.237304 3.8080309,-1.2373029 1.4545381,0.47260808 2.3534912,3.239305 0,1.5293919 l -2.3534933,1.7099115 0.8989552,-2.76669531 -2.353492,-1.70991339 2.9090761,1.3e-6 z" points="0 -4.004 .899 -1.237 3.808 -1.237 1.454 .473 2.353 3.239 0 1.529 -2.353 3.239 -1.454 .473 -3.808 -1.237 -.899 -1.237" transform="translate(32.933 14)"/><polygon id="polygon257" d="M 1.3084868e-6,-4.0040002 0.89895399,-1.237304 3.8080309,-1.2373029 1.4545381,0.47260808 2.3534912,3.239305 0,1.5293919 l -2.3534933,1.7099115 0.8989552,-2.76669531 -2.353492,-1.70991339 2.9090761,1.3e-6 z" points="0 -4.004 .899 -1.237 3.808 -1.237 1.454 .473 2.353 3.239 0 1.529 -2.353 3.239 -1.454 .473 -3.808 -1.237 -.899 -1.237" transform="translate(49.4,14)"/><polygon id="polygon258" d="M 1.3084868e-6,-4.0040002 0.89895399,-1.237304 3.8080309,-1.2373029 1.4545381,0.47260808 2.3534912,3.239305 0,1.5293919 l -2.3534933,1.7099115 0.8989552,-2.76669531 -2.353492,-1.70991339 2.9090761,1.3e-6 z" points="0 -4.004 .899 -1.237 3.808 -1.237 1.454 .473 2.353 3.239 0 1.529 -2.353 3.239 -1.454 .473 -3.808 -1.237 -.899 -1.237" transform="translate(65.867 14)"/><polygon id="polygon259" d="M 1.3084868e-6,-4.0040002 0.89895399,-1.237304 3.8080309,-1.2373029 1.4545381,0.47260808 2.3534912,3.239305 0,1.5293919 l -2.3534933,1.7099115 0.8989552,-2.76669531 -2.353492,-1.70991339 2.9090761,1.3e-6 z" points="0 -4.004 .899 -1.237 3.808 -1.237 1.454 .473 2.353 3.239 0 1.529 -2.353 3.239 -1.454 .473 -3.808 -1.237 -.899 -1.237" transform="translate(82.333 14)"/></g></g><g id="g260" transform="translate(0,42)"><g id="g261"><polygon id="polygon262" d="M 1.3084868e-6,-4.0040002 0.89895399,-1.237304 3.8080309,-1.2373029 1.4545381,0.47260808 2.3534912,3.239305 0,1.5293919 l -2.3534933,1.7099115 0.8989552,-2.76669531 -2.353492,-1.70991339 2.9090761,1.3e-6 z" points="0 -4.004 .899 -1.237 3.808 -1.237 1.454 .473 2.353 3.239 0 1.529 -2.353 3.239 -1.454 .473 -3.808 -1.237 -.899 -1.237" transform="translate(8.2333 7)"/><polygon id="polygon263" d="M 1.3084868e-6,-4.0040002 0.89895399,-1.237304 3.8080309,-1.2373029 1.4545381,0.47260808 2.3534912,3.239305 0,1.5293919 l -2.3534933,1.7099115 0.8989552,-2.76669531 -2.353492,-1.70991339 2.9090761,1.3e-6 z" points="0 -4.004 .899 -1.237 3.808 -1.237 1.454 .473 2.353 3.239 0 1.529 -2.353 3.239 -1.454 .473 -3.808 -1.237 -.899 -1.237" transform="translate(24.7,7)"/><polygon id="polygon264" d="M 1.3084868e-6,-4.0040002 0.89895399,-1.237304 3.8080309,-1.2373029 1.4545381,0.47260808 2.3534912,3.239305 0,1.5293919 l -2.3534933,1.7099115 0.8989552,-2.76669531 -2.353492,-1.70991339 2.9090761,1.3e-6 z" points="0 -4.004 .899 -1.237 3.808 -1.237 1.454 .473 2.353 3.239 0 1.529 -2.353 3.239 -1.454 .473 -3.808 -1.237 -.899 -1.237" transform="translate(41.167 7)"/><polygon id="polygon265" d="M 1.3084868e-6,-4.0040002 0.89895399,-1.237304 3.8080309,-1.2373029 1.4545381,0.47260808 2.3534912,3.239305 0,1.5293919 l -2.3534933,1.7099115 0.8989552,-2.76669531 -2.353492,-1.70991339 2.9090761,1.3e-6 z" points="0 -4.004 .899 -1.237 3.808 -1.237 1.454 .473 2.353 3.239 0 1.529 -2.353 3.239 -1.454 .473 -3.808 -1.237 -.899 -1.237" transform="translate(57.633 7)"/><polygon id="polygon266" d="M 1.3084868e-6,-4.0040002 0.89895399,-1.237304 3.8080309,-1.2373029 1.4545381,0.47260808 2.3534912,3.239305 0,1.5293919 l -2.3534933,1.7099115 0.8989552,-2.76669531 -2.353492,-1.70991339 2.9090761,1.3e-6 z" points="0 -4.004 .899 -1.237 3.808 -1.237 1.454 .473 2.353 3.239 0 1.529 -2.353 3.239 -1.454 .473 -3.808 -1.237 -.899 -1.237" transform="translate(74.1,7)"/><polygon id="polygon267" d="M 1.3084868e-6,-4.0040002 0.89895399,-1.237304 3.8080309,-1.2373029 1.4545381,0.47260808 2.3534912,3.239305 0,1.5293919 l -2.3534933,1.7099115 0.8989552,-2.76669531 -2.353492,-1.70991339 2.9090761,1.3e-6 z" points="0 -4.004 .899 -1.237 3.808 -1.237 1.454 .473 2.353 3.239 0 1.529 -2.353 3.239 -1.454 .473 -3.808 -1.237 -.899 -1.237" transform="translate(90.567 7)"/></g><g id="g268"><polygon id="polygon269" d="M 1.3084868e-6,-4.0040002 0.89895399,-1.237304 3.8080309,-1.2373029 1.4545381,0.47260808 2.3534912,3.239305 0,1.5293919 l -2.3534933,1.7099115 0.8989552,-2.76669531 -2.353492,-1.70991339 2.9090761,1.3e-6 z" points="0 -4.004 .899 -1.237 3.808 -1.237 1.454 .473 2.353 3.239 0 1.529 -2.353 3.239 -1.454 .473 -3.808 -1.237 -.899 -1.237" transform="translate(16.467 14)"/><polygon id="polygon270" d="M 1.3084868e-6,-4.0040002 0.89895399,-1.237304 3.8080309,-1.2373029 1.4545381,0.47260808 2.3534912,3.239305 0,1.5293919 l -2.3534933,1.7099115 0.8989552,-2.76669531 -2.353492,-1.70991339 2.9090761,1.3e-6 z" points="0 -4.004 .899 -1.237 3.808 -1.237 1.454 .473 2.353 3.239 0 1.529 -2.353 3.239 -1.454 .473 -3.808 -1.237 -.899 -1.237" transform="translate(32.933 14)"/><polygon id="polygon271" d="M 1.3084868e-6,-4.0040002 0.89895399,-1.237304 3.8080309,-1.2373029 1.4545381,0.47260808 2.3534912,3.239305 0,1.5293919 l -2.3534933,1.7099115 0.8989552,-2.76669531 -2.353492,-1.70991339 2.9090761,1.3e-6 z" points="0 -4.004 .899 -1.237 3.808 -1.237 1.454 .473 2.353 3.239 0 1.529 -2.353 3.239 -1.454 .473 -3.808 -1.237 -.899 -1.237" transform="translate(49.4,14)"/><polygon id="polygon272" d="M 1.3084868e-6,-4.0040002 0.89895399,-1.237304 3.8080309,-1.2373029 1.4545381,0.47260808 2.3534912,3.239305 0,1.5293919 l -2.3534933,1.7099115 0.8989552,-2.76669531 -2.353492,-1.70991339 2.9090761,1.3e-6 z" points="0 -4.004 .899 -1.237 3.808 -1.237 1.454 .473 2.353 3.239 0 1.529 -2.353 3.239 -1.454 .473 -3.808 -1.237 -.899 -1.237" transform="translate(65.867 14)"/><polygon id="polygon273" d="M 1.3084868e-6,-4.0040002 0.89895399,-1.237304 3.8080309,-1.2373029 1.4545381,0.47260808 2.3534912,3.239305 0,1.5293919 l -2.3534933,1.7099115 0.8989552,-2.76669531 -2.353492,-1.70991339 2.9090761,1.3e-6 z" points="0 -4.004 .899 -1.237 3.808 -1.237 1.454 .473 2.353 3.239 0 1.529 -2.353 3.239 -1.454 .473 -3.808 -1.237 -.899 -1.237" transform="translate(82.333 14)"/></g></g><g id="g211" transform="translate(0,56)"><polygon id="polygon212" d="M 1.3084868e-6,-4.0040002 0.89895399,-1.237304 3.8080309,-1.2373029 1.4545381,0.47260808 2.3534912,3.239305 0,1.5293919 l -2.3534933,1.7099115 0.8989552,-2.76669531 -2.353492,-1.70991339 2.9090761,1.3e-6 z" points="0 -4.004 .899 -1.237 3.808 -1.237 1.454 .473 2.353 3.239 0 1.529 -2.353 3.239 -1.454 .473 -3.808 -1.237 -.899 -1.237" transform="translate(8.2333 7)"/><polygon id="polygon213" d="M 1.3084868e-6,-4.0040002 0.89895399,-1.237304 3.8080309,-1.2373029 1.4545381,0.47260808 2.3534912,3.239305 0,1.5293919 l -2.3534933,1.7099115 0.8989552,-2.76669531 -2.353492,-1.70991339 2.9090761,1.3e-6 z" points="0 -4.004 .899 -1.237 3.808 -1.237 1.454 .473 2.353 3.239 0 1.529 -2.353 3.239 -1.454 .473 -3.808 -1.237 -.899 -1.237" transform="translate(24.7,7)"/><polygon id="polygon214" d="M 1.3084868e-6,-4.0040002 0.89895399,-1.237304 3.8080309,-1.2373029 1.4545381,0.47260808 2.3534912,3.239305 0,1.5293919 l -2.3534933,1.7099115 0.8989552,-2.76669531 -2.353492,-1.70991339 2.9090761,1.3e-6 z" points="0 -4.004 .899 -1.237 3.808 -1.237 1.454 .473 2.353 3.239 0 1.529 -2.353 3.239 -1.454 .473 -3.808 -1.237 -.899 -1.237" transform="translate(41.167 7)"/><polygon id="polygon215" d="M 1.3084868e-6,-4.0040002 0.89895399,-1.237304 3.8080309,-1.2373029 1.4545381,0.47260808 2.3534912,3.239305 0,1.5293919 l -2.3534933,1.7099115 0.8989552,-2.76669531 -2.353492,-1.70991339 2.9090761,1.3e-6 z" points="0 -4.004 .899 -1.237 3.808 -1.237 1.454 .473 2.353 3.239 0 1.529 -2.353 3.239 -1.454 .473 -3.808 -1.237 -.899 -1.237" transform="translate(57.633 7)"/><polygon id="polygon216" d="M 1.3084868e-6,-4.0040002 0.89895399,-1.237304 3.8080309,-1.2373029 1.4545381,0.47260808 2.3534912,3.239305 0,1.5293919 l -2.3534933,1.7099115 0.8989552,-2.76669531 -2.353492,-1.70991339 2.9090761,1.3e-6 z" points="0 -4.004 .899 -1.237 3.808 -1.237 1.454 .473 2.353 3.239 0 1.529 -2.353 3.239 -1.454 .473 -3.808 -1.237 -.899 -1.237" transform="translate(74.1,7)"/><polygon id="polygon217" d="M 1.3084868e-6,-4.0040002 0.89895399,-1.237304 3.8080309,-1.2373029 1.4545381,0.47260808 2.3534912,3.239305 0,1.5293919 l -2.3534933,1.7099115 0.8989552,-2.76669531 -2.353492,-1.70991339 2.9090761,1.3e-6 z" points="0 -4.004 .899 -1.237 3.808 -1.237 1.454 .473 2.353 3.239 0 1.529 -2.353 3.239 -1.454 .473 -3.808 -1.237 -.899 -1.237" transform="translate(90.567 7)"/></g></g></g></svg>