<svg xmlns:svg="http://www.w3.org/2000/svg" xmlns="http://www.w3.org/2000/svg" xmlns:xlink="http://www.w3.org/1999/xlink" id="Layer_1" data-name="Layer 1" viewBox="0 0 320 40" version="1.1" width="100%" > <defs id="defs33"> <linearGradient spreadMethod="pad" gradientUnits="userSpaceOnUse" y2="45.490726" x2="744.31927" y1="45" x1="465.75" id="linearGradient1059" > <stop id="stop1055" stop-color="#1e1d30" offset="0"/> <stop style="stop-color: #435eff; stop-opacity: 1;" id="stop1057" stop-color="#2f2079" offset="1"/> </linearGradient> <style id="style2"> [data-theme='light'] #stakewise-banner-text{fill: #000000;}[data-theme='light'] #stakewise-logo-text{fill: #000000;}[data-theme='light'] #stakewise-banner-bg{fill: #fefdfb;}[data-theme='light'] #stakewise-gradient-banner-bg{display: none;}.cls-1{fill: #1e1e2e;}.cls-2{fill: url(#linear-gradient);}.cls-3{font-size: 10.09px; font-family: MyriadPro-Regular, Myriad Pro;}.cls-4{letter-spacing: -0.01em;}.cls-5{letter-spacing: 0.01em;}.cls-6{font-size: 12.5px; font-family: Poppins-Medium, Poppins;}.cls-6, .cls-9{fill: #fff;}.cls-7{fill: #4b4fab;}.cls-8{fill: #00dcce;}.cls-9{font-size: 14.73px; font-family: Poppins-Regular, Poppins;}.cls-10{fill: #44e4de; stroke: #fff; stroke-miterlimit: 10;}.cls-11{font-size: 12.71px; font-family: Poppins-Bold, Poppins; font-weight: 700;}.cls-12{fill: none;}.cls-13, .cls-50{fill: #42e8df;}.cls-14{fill: url(#radial-gradient);}.cls-15{fill: url(#radial-gradient-2);}.cls-16{fill: url(#radial-gradient-3);}.cls-17{fill: url(#radial-gradient-8);}.cls-18{fill: #342785;}.cls-19{fill: #6069da;}.cls-20{fill: #7078e0;}.cls-21{fill: #b1b4fa;}.cls-22{fill: #7d83e5;}.cls-23{fill: #878dea;}.cls-24{fill: #a1a4f4;}.cls-25{fill: #959aee;}.cls-26{fill: #9ffef8;}.cls-27{fill: #24126a;}.cls-28{fill: #355190;}.cls-29{fill: #43e8df;}.cls-30{fill: #2e2c79;}.cls-31{fill: #5adcee;}.cls-32{fill: #344f8e;}.cls-33{fill: #354186;}.cls-34{fill: #2e327c;}.cls-35{fill: #354e8e;}.cls-36{fill: #42e8e1;}.cls-37{fill: #354187;}.cls-38{fill: #35488a;}.cls-39{fill: #353685;}.cls-40{fill: #43e7df;}.cls-41{fill: #355b96;}.cls-42{fill: #355793;}.cls-43, .cls-51{fill: #9ffdf8;}.cls-44{fill: #49b2ce;}.cls-45{fill: #355f99;}.cls-46{fill: #3882ac;}.cls-47{fill: #5ddbcd;}.cls-48{fill: #5961d7;}.cls-49{fill: #49b4d6;}.cls-50, .cls-51{opacity: 0.4;}.cls-52{fill: #498cba;}</style> <linearGradient id="linear-gradient" x1="465.75" y1="45" x2="744.31927" y2="45.490726" gradientUnits="userSpaceOnUse" spreadMethod="pad" > <stop offset="0" stop-color="#1e1d30" id="stop4"/> <stop offset="1" stop-color="#2f2079" id="stop6" style="stop-color: #435eaf; stop-opacity: 1;"/> </linearGradient> <radialGradient id="radial-gradient" cx="556.16998" cy="45.009998" r="37.790001" gradientUnits="userSpaceOnUse" > <stop offset="0" stop-color="#15f5ff" id="stop9"/> <stop offset="0.02" stop-color="#14e8f6" stop-opacity="0.99" id="stop11"/> <stop offset="0.11" stop-color="#0fbad5" stop-opacity="0.97" id="stop13"/> <stop offset="0.21" stop-color="#0b92b7" stop-opacity="0.95" id="stop15"/> <stop offset="0.31" stop-color="#08709e" stop-opacity="0.94" id="stop17"/> <stop offset="0.42" stop-color="#05548a" stop-opacity="0.92" id="stop19"/> <stop offset="0.53" stop-color="#033e7b" stop-opacity="0.91" id="stop21"/> <stop offset="0.65" stop-color="#012f70" stop-opacity="0.91" id="stop23"/> <stop offset="0.8" stop-color="#002669" stop-opacity="0.9" id="stop25"/> <stop offset="1" stop-color="#002367" stop-opacity="0.9" id="stop27"/> </radialGradient> <radialGradient id="radial-gradient-2" cx="554.47998" cy="52.290001" r="0.079999998" xlink:href="#radial-gradient"/> <radialGradient id="radial-gradient-3" cx="556.16998" cy="45" r="37.799999" xlink:href="#radial-gradient"/> <radialGradient id="radial-gradient-8" cx="556.20001" cy="45.009998" r="37.77" xlink:href="#radial-gradient"/> <linearGradient y2="0" x2="1" y1="0" x1="0" id="bf264e7a-b268-48fb-8cc0-6e27ecfde630" gradientTransform="rotate(25)" data-v-423bf9ae="" > <stop id="stop2" style="stop-color: rgb(29, 140, 248); stop-opacity: 1;" offset="0%" data-v-423bf9ae=""/> <stop id="stop4-8" style="stop-color: rgb(51, 88, 244); stop-opacity: 1;" offset="100%" data-v-423bf9ae=""/> </linearGradient> <linearGradient xlink:href="#linear-gradient" id="linearGradient1051" gradientUnits="userSpaceOnUse" x1="465.75" y1="45" x2="744.31927" y2="45.490726" spreadMethod="pad"/> <linearGradient gradientTransform="matrix(0.82781403,0,0,0.44444448,-282.64855,-1.6439638e-6)" id="linear-gradient-6" x1="465.75" y1="45" x2="744.81" y2="45" gradientUnits="userSpaceOnUse" > <stop offset="0" stop-color="#1e1d30" id="stop4-2"/> <stop offset="1" stop-color="#2f2079" id="stop6-9"/> </linearGradient> <radialGradient id="radial-gradient-82" cx="556.16998" cy="45.009998" r="37.790001" gradientUnits="userSpaceOnUse" > <stop offset="0" stop-color="#15f5ff" id="stop17-1"/> <stop offset="0.02" stop-color="#14e8f6" stop-opacity="0.99" id="stop19-2"/> <stop offset="0.11" stop-color="#0fbad5" stop-opacity="0.97" id="stop21-9"/> <stop offset="0.21" stop-color="#0b92b7" stop-opacity="0.95" id="stop23-9"/> <stop offset="0.31" stop-color="#08709e" stop-opacity="0.94" id="stop25-2"/> <stop offset="0.42" stop-color="#05548a" stop-opacity="0.92" id="stop27-7"/> <stop offset="0.53" stop-color="#033e7b" stop-opacity="0.91" id="stop29"/> <stop offset="0.65" stop-color="#012f70" stop-opacity="0.91" id="stop31"/> <stop offset="0.8" stop-color="#002669" stop-opacity="0.9" id="stop33"/> <stop offset="1" stop-color="#002367" stop-opacity="0.9" id="stop35"/> </radialGradient> <radialGradient gradientTransform="translate(561.40938,-1.117432)" id="radial-gradient-2-2" cx="554.47998" cy="52.290001" r="0.079999998" xlink:href="#radial-gradient-82"/> <radialGradient id="radialGradient471" cx="556.16998" cy="45.009998" r="37.790001" gradientUnits="userSpaceOnUse" > <stop offset="0" stop-color="#15f5ff" id="stop451"/> <stop offset="0.02" stop-color="#14e8f6" stop-opacity="0.99" id="stop453"/> <stop offset="0.11" stop-color="#0fbad5" stop-opacity="0.97" id="stop455"/> <stop offset="0.21" stop-color="#0b92b7" stop-opacity="0.95" id="stop457"/> <stop offset="0.31" stop-color="#08709e" stop-opacity="0.94" id="stop459"/> <stop offset="0.42" stop-color="#05548a" stop-opacity="0.92" id="stop461"/> <stop offset="0.53" stop-color="#033e7b" stop-opacity="0.91" id="stop463"/> <stop offset="0.65" stop-color="#012f70" stop-opacity="0.91" id="stop465"/> <stop offset="0.8" stop-color="#002669" stop-opacity="0.9" id="stop467"/> <stop offset="1" stop-color="#002367" stop-opacity="0.9" id="stop469"/> </radialGradient> <radialGradient gradientTransform="translate(561.40938,-1.117432)" id="radial-gradient-3-0" cx="556.16998" cy="45" r="37.799999" xlink:href="#radial-gradient-82"/> <radialGradient id="radialGradient494" cx="556.16998" cy="45.009998" r="37.790001" gradientUnits="userSpaceOnUse" > <stop offset="0" stop-color="#15f5ff" id="stop474"/> <stop offset="0.02" stop-color="#14e8f6" stop-opacity="0.99" id="stop476"/> <stop offset="0.11" stop-color="#0fbad5" stop-opacity="0.97" id="stop478"/> <stop offset="0.21" stop-color="#0b92b7" stop-opacity="0.95" id="stop480"/> <stop offset="0.31" stop-color="#08709e" stop-opacity="0.94" id="stop482"/> <stop offset="0.42" stop-color="#05548a" stop-opacity="0.92" id="stop484"/> <stop offset="0.53" stop-color="#033e7b" stop-opacity="0.91" id="stop486"/> <stop offset="0.65" stop-color="#012f70" stop-opacity="0.91" id="stop488"/> <stop offset="0.8" stop-color="#002669" stop-opacity="0.9" id="stop490"/> <stop offset="1" stop-color="#002367" stop-opacity="0.9" id="stop492"/> </radialGradient> <radialGradient id="radialGradient496" cx="556.16998" cy="45" r="37.799999" xlink:href="#radial-gradient-82"/> <radialGradient id="radialGradient518" cx="556.16998" cy="45.009998" r="37.790001" gradientUnits="userSpaceOnUse" > <stop offset="0" stop-color="#15f5ff" id="stop498"/> <stop offset="0.02" stop-color="#14e8f6" stop-opacity="0.99" id="stop500"/> <stop offset="0.11" stop-color="#0fbad5" stop-opacity="0.97" id="stop502"/> <stop offset="0.21" stop-color="#0b92b7" stop-opacity="0.95" id="stop504"/> <stop offset="0.31" stop-color="#08709e" stop-opacity="0.94" id="stop506"/> <stop offset="0.42" stop-color="#05548a" stop-opacity="0.92" id="stop508"/> <stop offset="0.53" stop-color="#033e7b" stop-opacity="0.91" id="stop510"/> <stop offset="0.65" stop-color="#012f70" stop-opacity="0.91" id="stop512"/> <stop offset="0.8" stop-color="#002669" stop-opacity="0.9" id="stop514"/> <stop offset="1" stop-color="#002367" stop-opacity="0.9" id="stop516"/> </radialGradient> <radialGradient id="radialGradient540" cx="556.16998" cy="45.009998" r="37.790001" gradientUnits="userSpaceOnUse" > <stop offset="0" stop-color="#15f5ff" id="stop520"/> <stop offset="0.02" stop-color="#14e8f6" stop-opacity="0.99" id="stop522"/> <stop offset="0.11" stop-color="#0fbad5" stop-opacity="0.97" id="stop524"/> <stop offset="0.21" stop-color="#0b92b7" stop-opacity="0.95" id="stop526"/> <stop offset="0.31" stop-color="#08709e" stop-opacity="0.94" id="stop528"/> <stop offset="0.42" stop-color="#05548a" stop-opacity="0.92" id="stop530"/> <stop offset="0.53" stop-color="#033e7b" stop-opacity="0.91" id="stop532"/> <stop offset="0.65" stop-color="#012f70" stop-opacity="0.91" id="stop534"/> <stop offset="0.8" stop-color="#002669" stop-opacity="0.9" id="stop536"/> <stop offset="1" stop-color="#002367" stop-opacity="0.9" id="stop538"/> </radialGradient> <radialGradient id="radialGradient562" cx="556.16998" cy="45.009998" r="37.790001" gradientUnits="userSpaceOnUse" > <stop offset="0" stop-color="#15f5ff" id="stop542"/> <stop offset="0.02" stop-color="#14e8f6" stop-opacity="0.99" id="stop544"/> <stop offset="0.11" stop-color="#0fbad5" stop-opacity="0.97" id="stop546"/> <stop offset="0.21" stop-color="#0b92b7" stop-opacity="0.95" id="stop548"/> <stop offset="0.31" stop-color="#08709e" stop-opacity="0.94" id="stop550"/> <stop offset="0.42" stop-color="#05548a" stop-opacity="0.92" id="stop552"/> <stop offset="0.53" stop-color="#033e7b" stop-opacity="0.91" id="stop554"/> <stop offset="0.65" stop-color="#012f70" stop-opacity="0.91" id="stop556"/> <stop offset="0.8" stop-color="#002669" stop-opacity="0.9" id="stop558"/> <stop offset="1" stop-color="#002367" stop-opacity="0.9" id="stop560"/> </radialGradient> <radialGradient id="radialGradient584" cx="556.16998" cy="45.009998" r="37.790001" gradientUnits="userSpaceOnUse" > <stop offset="0" stop-color="#15f5ff" id="stop564"/> <stop offset="0.02" stop-color="#14e8f6" stop-opacity="0.99" id="stop566"/> <stop offset="0.11" stop-color="#0fbad5" stop-opacity="0.97" id="stop568"/> <stop offset="0.21" stop-color="#0b92b7" stop-opacity="0.95" id="stop570"/> <stop offset="0.31" stop-color="#08709e" stop-opacity="0.94" id="stop572"/> <stop offset="0.42" stop-color="#05548a" stop-opacity="0.92" id="stop574"/> <stop offset="0.53" stop-color="#033e7b" stop-opacity="0.91" id="stop576"/> <stop offset="0.65" stop-color="#012f70" stop-opacity="0.91" id="stop578"/> <stop offset="0.8" stop-color="#002669" stop-opacity="0.9" id="stop580"/> <stop offset="1" stop-color="#002367" stop-opacity="0.9" id="stop582"/> </radialGradient> <radialGradient gradientTransform="translate(561.40938,-1.117432)" id="radial-gradient-8-6" cx="556.20001" cy="45.009998" r="37.77" xlink:href="#radial-gradient-82"/> <radialGradient id="radialGradient607" cx="556.16998" cy="45.009998" r="37.790001" gradientUnits="userSpaceOnUse" > <stop offset="0" stop-color="#15f5ff" id="stop587"/> <stop offset="0.02" stop-color="#14e8f6" stop-opacity="0.99" id="stop589"/> <stop offset="0.11" stop-color="#0fbad5" stop-opacity="0.97" id="stop591"/> <stop offset="0.21" stop-color="#0b92b7" stop-opacity="0.95" id="stop593"/> <stop offset="0.31" stop-color="#08709e" stop-opacity="0.94" id="stop595"/> <stop offset="0.42" stop-color="#05548a" stop-opacity="0.92" id="stop597"/> <stop offset="0.53" stop-color="#033e7b" stop-opacity="0.91" id="stop599"/> <stop offset="0.65" stop-color="#012f70" stop-opacity="0.91" id="stop601"/> <stop offset="0.8" stop-color="#002669" stop-opacity="0.9" id="stop603"/> <stop offset="1" stop-color="#002367" stop-opacity="0.9" id="stop605"/> </radialGradient> <radialGradient id="radialGradient629" cx="556.16998" cy="45.009998" r="37.790001" gradientUnits="userSpaceOnUse" > <stop offset="0" stop-color="#15f5ff" id="stop609"/> <stop offset="0.02" stop-color="#14e8f6" stop-opacity="0.99" id="stop611"/> <stop offset="0.11" stop-color="#0fbad5" stop-opacity="0.97" id="stop613"/> <stop offset="0.21" stop-color="#0b92b7" stop-opacity="0.95" id="stop615"/> <stop offset="0.31" stop-color="#08709e" stop-opacity="0.94" id="stop617"/> <stop offset="0.42" stop-color="#05548a" stop-opacity="0.92" id="stop619"/> <stop offset="0.53" stop-color="#033e7b" stop-opacity="0.91" id="stop621"/> <stop offset="0.65" stop-color="#012f70" stop-opacity="0.91" id="stop623"/> <stop offset="0.8" stop-color="#002669" stop-opacity="0.9" id="stop625"/> <stop offset="1" stop-color="#002367" stop-opacity="0.9" id="stop627"/> </radialGradient> <radialGradient id="radialGradient651" cx="556.16998" cy="45.009998" r="37.790001" gradientUnits="userSpaceOnUse" > <stop offset="0" stop-color="#15f5ff" id="stop631"/> <stop offset="0.02" stop-color="#14e8f6" stop-opacity="0.99" id="stop633"/> <stop offset="0.11" stop-color="#0fbad5" stop-opacity="0.97" id="stop635"/> <stop offset="0.21" stop-color="#0b92b7" stop-opacity="0.95" id="stop637"/> <stop offset="0.31" stop-color="#08709e" stop-opacity="0.94" id="stop639"/> <stop offset="0.42" stop-color="#05548a" stop-opacity="0.92" id="stop641"/> <stop offset="0.53" stop-color="#033e7b" stop-opacity="0.91" id="stop643"/> <stop offset="0.65" stop-color="#012f70" stop-opacity="0.91" id="stop645"/> <stop offset="0.8" stop-color="#002669" stop-opacity="0.9" id="stop647"/> <stop offset="1" stop-color="#002367" stop-opacity="0.9" id="stop649"/> </radialGradient> </defs> <title id="title35">StakeWise</title> <rect y="0" x="0" style="stroke-width: 0.441996;" fill="#1e1e2e" class="cls-1" width="320" height="40" id="stakewise-banner-bg"/> <rect y="0" style="fill: url(#linear-gradient-6); stroke-width: 0.606562;" class="cls-2" x="96.904114" width="223.09587" height="40" id="stakewise-gradient-banner-bg"/> <g transform="matrix(0.40578824,0,0,0.40578824,9.966511,0.23506125)" id="g634" > <path id="path53" d="M 52.667436,61.042041 A 24.229037,24.229037 0 1 1 76.888045,36.813003 24.254328,24.254328 0 0 1 52.667436,61.042041 Z" class="cls-7" style="stroke-width: 0.843042;"/> <path id="path55" d="m 61.603686,37.344119 h -0.05901 c 0,0 0,0 0,0 a 0.15174762,0.15174762 0 0 0 0,0.05901 v 0 l -0.843042,3.077106 v 0 a 0.07587381,0.07587381 0 0 0 0,0.05901 0.08430424,0.08430424 0 0 0 0,0.05058 v 0 l 2.621861,1.745098 h 0.06744 0.101165 0.05901 l 3.953869,-4.215212 v 0 0 0 0 0 -0.05901 0 0 0 0 h -0.07587 L 61.67113,37.44528 a 0.09273466,0.09273466 0 0 0 -0.06744,0 v 0 z m 5.294306,1.087525 -3.220422,3.372169 1.686085,-1.686084 z m -2.529127,-0.725016 h -2.259354 l 4.687316,0.505825 z m -0.775599,1.686085 -2.529127,0.952637 1.753528,-0.531116 z m -2.453253,1.205551 2.529126,-0.952639 -0.893624,0.168609 z" class="cls-8" style="stroke-width: 0.843042;"/> <path id="path57" d="m 62.960984,42.579412 a 0.12645635,0.12645635 0 0 0 0,-0.168608 l -2.529127,-1.686085 0.843041,-2.975939 a 0.11802593,0.11802593 0 0 0 -0.0843,-0.143318 0.21919101,0.21919101 0 0 0 -0.20233,0.05901 l -3.220423,3.945439 v 0 c 0,0 0,0 0,0 v 0 0 a 0.07587381,0.07587381 0 0 0 0,0.05901 v 0 0.05058 h 0.06744 l 5.016102,0.843042 a 0.17703889,0.17703889 0 0 0 0.109595,0.01686 z M 59.158863,40.134589 58.239946,41.34857 60.6932,38.364201 Z m -0.843042,1.466894 1.340437,0.3878 2.486975,0.295065 z" class="cls-8" style="stroke-width: 0.843042;"/> <path id="path59" d="m 57.169283,30.068664 v 0.05058 c 0,0 0,0 0,0 a 0.16017805,0.16017805 0 0 0 0,0.06744 v 0 l 0.682864,3.119256 v 0 0.05058 a 0.09273466,0.09273466 0 0 0 0.05901,0 v 0 l 3.127687,0.295066 a 0.12645635,0.12645635 0 0 0 0.07587,0 v 0 h 0.05058 v 0 a 0.21076059,0.21076059 0 0 0 0,-0.05901 l 1.610211,-5.597802 v 0 -0.05901 0 0 0 0 h -0.168609 l -5.370179,2.082314 h -0.05901 v 0 z m 5.17628,-1.542768 -1.230842,4.518707 0.699725,-2.267784 z m -2.529127,0.547979 -2.048594,1.02851 4.417543,-1.770388 z m 0.109596,1.829402 -1.804112,2.040162 1.256133,-1.323577 z m -1.59335,2.2172 1.79568,-2.031731 -0.708156,0.564837 z" class="cls-8" style="stroke-width: 0.843042;"/> <path id="path61" d="m 60.844948,34.056255 a 0.12645635,0.12645635 0 0 0 -0.109596,-0.134888 l -3.060244,-0.303495 -0.691295,-3.00123 a 0.10959551,0.10959551 0 0 0 -0.143317,-0.08431 0.19389974,0.19389974 0 0 0 -0.151747,0.143317 L 55.71082,35.67489 v 0 0 0 0 a 0.08430424,0.08430424 0 0 0 0,0.04215 v 0 h 0.05058 0.07587 l 4.839069,-1.601774 a 0.18546932,0.18546932 0 0 0 0.168609,-0.05901 z m -4.510277,-0.362509 -0.236052,1.500616 0.741877,-3.802122 z m 0,1.686085 1.348868,-0.303495 2.301506,-0.927346 z" class="cls-8" style="stroke-width: 0.843042;"/> <path id="path63" d="m 40.9913,42.93349 h 0.118026 a 0.09273466,0.09273466 0 0 0 0.06744,0 v 0 l 2.58814,-1.854693 v 0 a 0.08430424,0.08430424 0 0 0 0,-0.05058 0.09273466,0.09273466 0 0 0 0,-0.06744 v 0 L 42.84599,37.951116 a 0.15174762,0.15174762 0 0 0 0,-0.05901 v 0 h -0.05058 -0.09273 l -5.715827,0.733447 h -0.09273 v 0 0 0.05058 0 0.05058 0 l 4.055033,4.130906 h 0.05901 v 0 z m -3.372169,-4.215212 4.653594,-0.59856 -2.419532,0.244483 z m 1.458463,2.17505 1.686085,1.458464 -3.304726,-3.372171 z m 1.686085,-0.800891 2.571279,0.843043 -1.686085,-0.708156 z m 2.655583,0.632282 -2.571279,-0.885194 0.843042,0.429952 z" class="cls-8" style="stroke-width: 0.843042;"/> <path id="path65" d="m 43.275945,38.010123 a 0.12645635,0.12645635 0 0 0 -0.0843,0.151747 l 0.885194,2.942218 -2.529127,1.78725 a 0.10959551,0.10959551 0 0 0 0,0.168608 0.17703889,0.17703889 0 0 0 0.18547,0.07587 l 4.99081,-1.003221 h 0.06744 a 0.10959551,0.10959551 0 0 0 0,-0.05058 v 0 a 0.12645635,0.12645635 0 0 0 0,-0.05901 v 0 0 0 0 l -3.37217,-3.852704 a 0.16860847,0.16860847 0 0 0 -0.143317,-0.160178 z m 1.38259,4.299517 1.509045,-0.354079 -3.802121,0.767168 z m 1.568058,-0.573269 -0.792459,-1.129678 -1.736668,-1.80411 z" class="cls-8" style="stroke-width: 0.843042;"/> <path id="path67" d="m 47.794652,24.673193 a 0.24448228,0.24448228 0 0 0 0,0.07587 v 0 a 0.16860847,0.16860847 0 0 0 0.07587,0.07587 v 0 l 4.476555,2.486975 v 0 a 0.18546932,0.18546932 0 0 0 0.21076,0 v 0 L 57.0091,24.875516 a 0.23605186,0.23605186 0 0 0 0.07587,-0.0843 0.13488678,0.13488678 0 0 0 0,-0.07587 v 0 0 a 0.23605186,0.23605186 0 0 0 0,-0.101166 l -4.392251,-6.980391 v 0 0 0 0 h -0.261344 c 0,0 0,0 0,0 v 0 0 0 l -4.577718,6.912949 a 0.22762143,0.22762143 0 0 0 0,0.101165 v 0 z m 4.931798,-6.187931 3.557639,5.682106 -3.5745,-1.559628 z m -0.463673,4.122478 -3.650374,1.559628 3.650374,-5.698967 z m 0,0.488964 v 3.667234 l -3.734678,-2.073884 z m 0.463673,3.667234 v -3.667234 l 3.658804,1.59335 z" class="cls-8" style="stroke-width: 0.843042;"/> <path id="path69" d="m 57.12713,25.431931 a 0.24448228,0.24448228 0 0 0 -0.295064,-0.04215 l -4.307946,2.419531 -4.316377,-2.419531 a 0.25291271,0.25291271 0 0 0 -0.295065,0.04215 0.21919101,0.21919101 0 0 0 -0.05901,0.286634 l 4.434402,5.901297 v 0 0 c 0,0 0,0 0,0 v 0 0 a 0.16860847,0.16860847 0 0 0 0.09274,0 v 0 a 0.16860847,0.16860847 0 0 0 0.09273,0 v 0 0 c 0,0 0,0 0,0 v 0 0 l 4.653593,-5.901297 a 0.21076059,0.21076059 0 0 0 0,-0.286634 z m -4.839063,2.76518 v 2.62186 l -3.372169,-4.518706 z m 0.463674,2.62186 v -2.62186 l 3.37217,-1.896846 z" class="cls-8" style="stroke-width: 0.843042;"/> <path id="path71" d="m 51.933989,44.50998 a 12.645635,12.645635 0 0 0 1.551199,-1.39945 10.310408,10.310408 0 0 0 1.955858,-3.785261 l -0.261343,-0.252913 a 10.276686,10.276686 0 0 1 -2.529127,3.431182 7.5873812,7.5873812 0 0 1 -0.843042,0.56484 33.595238,33.595238 0 0 1 0.843042,-9.071137 L 52.068877,33.77805 a 33.350755,33.350755 0 0 0 -1.905276,11.330489 32.608878,32.608878 0 0 0 2.141328,10.495878 l 2.841052,-0.151748 A 32.802778,32.802778 0 0 1 51.993003,45.218136 c 0,-0.219192 0,-0.446813 -0.05901,-0.674435 z" class="cls-8" style="stroke-width: 0.843042;"/> <path id="path73" d="m 42.626803,33.305946 0.04215,0.04215 v 0 h 0.07587 v 0 l 3.17827,-0.08431 v 0 h 0.05901 a 0.15174762,0.15174762 0 0 0 0,-0.05901 v 0 l 1.028513,-2.95908 v -0.09273 -0.05058 0 0 l -0.05901,-0.04215 -5.210003,-2.655584 h -0.143312 v 0 0 0 0.05901 0 l 0.98636,5.842283 v 0.06744 0 z m -0.463674,-5.37861 4.215212,2.124468 -2.099175,-1.154969 z m 0,2.621863 0.632282,2.20877 -0.843043,-4.645163 z m 1.820972,0.269772 1.627071,2.17505 -0.99479,-1.525906 z m 1.846262,2.014872 -1.618641,-2.141327 0.42152,0.843041 z" class="cls-8" style="stroke-width: 0.843042;"/> <path id="path75" d="m 47.280396,30.557628 a 0.10959551,0.10959551 0 0 0 -0.151747,0.07587 l -0.961069,2.933788 -3.077105,0.06744 a 0.11802593,0.11802593 0 0 0 -0.118026,0.126456 0.19389974,0.19389974 0 0 0 0.118026,0.168609 l 4.76319,1.97272 v 0 h 0.05901 v 0 a 0.07587381,0.07587381 0 0 0 0,-0.05058 v 0 0 -0.04215 0 l -0.581699,-5.058255 a 0.19389974,0.19389974 0 0 0 -0.05058,-0.1939 z m -1.272995,4.333238 1.424743,0.539548 -3.5745,-1.500616 z m 1.635503,0.379369 v -1.382589 l -0.421521,-2.470114 z" class="cls-8" style="stroke-width: 0.843042;"/> </g> <rect style="stroke-width: 0.692416;" class="cls-10" x="252.52786" y="11.126702" width="51.501823" height="17.746595" rx="8.30898" ry="8.30898" id="rect79"/> <path style="fill: #000000; stroke-width: 0.769829;" id="path1419" d="m 258.22133,15.591994 h 5.75066 v 0.90071 h -2.35576 v 6.566678 h -1.03928 v -6.566678 h -2.35562 z m 8.85306,1.739829 v 0 0 q 0.13016,0 0.2925,0.01545 v 0 0 q 0.16935,0.02303 0.33098,0.0462 v 0 0 q 0.16177,0.03075 0.29264,0.05392 v 0 0 q 0.13875,0.03075 0.20011,0.0462 v 0 l -0.16935,0.87761 v 0 q -0.11586,-0.0462 -0.39263,-0.100123 v 0 0 q -0.27706,-0.06165 -0.7083,-0.06165 v 0 0 q -0.27706,0 -0.55411,0.06165 v 0 0 q -0.27734,0.05392 -0.36188,0.07695 v 0 4.711392 h -1.0008 v -5.365756 0 q 0.35415,-0.130875 0.88523,-0.246332 v 0 0 q 0.5235,-0.115428 1.18561,-0.115428 z m 1.2471,7.58286 0.1848,-0.808325 v 0 q 0.11586,0.05392 0.30781,0.100123 v 0 0 q 0.1848,0.0462 0.3696,0.0462 v 0 0 q 0.59273,0 0.93158,-0.261737 v 0 0 q 0.33098,-0.261737 0.60045,-0.85451 v 0 0 q -0.67741,-1.293337 -1.27028,-2.748316 v 0 0 q -0.58515,-1.447283 -0.96991,-2.933071 v 0 h 1.07776 v 0 q 0.11585,0.484997 0.28478,1.046976 v 0 0 q 0.16935,0.554283 0.3696,1.147056 v 0 0 q 0.20782,0.592773 0.4464,1.185547 v 0 0 q 0.231,0.592773 0.49275,1.147056 v 0 0 q 0.40793,-1.131666 0.70816,-2.240218 v 0 0 q 0.30795,-1.116261 0.57743,-2.286417 v 0 h 1.03155 v 0 q -0.3849,1.585854 -0.8622,3.040847 v 0 0 q -0.4773,1.462688 -1.02383,2.732911 v 0 0 q -0.21556,0.484998 -0.44655,0.83912 v 0 0 q -0.23086,0.346427 -0.51578,0.577368 v 0 0 q -0.2772,0.223261 -0.63121,0.331037 v 0 0 q -0.34643,0.107704 -0.78525,0.107704 v 0 0 q -0.12301,0 -0.25417,-0.01545 v 0 0 q -0.12301,-0.01545 -0.25389,-0.0462 v 0 0 q -0.12301,-0.02303 -0.22327,-0.05392 v 0 0 q -0.10013,-0.03848 -0.14633,-0.05392 z m 10.76999,-1.793711 v 0 0 q -0.23086,0 -0.49275,-0.0072 v 0 0 q -0.26161,-0.01545 -0.53108,-0.03075 v 0 0 q -0.26175,-0.02303 -0.51592,-0.05392 v 0 0 q -0.26161,-0.03848 -0.47716,-0.0924 v 0 -7.236432 0 q 0.21555,-0.05392 0.47716,-0.0924 v 0 0 q 0.25417,-0.03075 0.51592,-0.05392 v 0 0 q 0.26947,-0.01545 0.5235,-0.03075 v 0 0 q 0.26175,-0.0072 0.48488,-0.0072 v 0 0 q 0.64666,0 1.21636,0.0924 v 0 0 q 0.56198,0.100124 0.97778,0.331023 v 0 0 q 0.41565,0.230956 0.65437,0.608178 v 0 0 q 0.23858,0.377222 0.23858,0.93149 v 0 0 q 0,0.608178 -0.2925,1.000791 v 0 0 q -0.29265,0.400322 -0.77753,0.592773 v 0 0 q 0.66196,0.192466 1.04686,0.615859 v 0 0 q 0.38505,0.415713 0.38505,1.185547 v 0 0 q 0,1.116261 -0.82373,1.685949 v 0 0 q -0.82373,0.561978 -2.60979,0.561978 z m 0.36188,-3.541235 h -1.34724 v 2.625135 0 q 0.12301,0.01545 0.28478,0.02303 v 0 0 q 0.13875,0.0072 0.3234,0.01545 v 0 0 q 0.19252,0.0072 0.43883,0.0072 v 0 0 q 0.46185,0 0.87751,-0.0615 v 0 0 q 0.4158,-0.06165 0.73133,-0.207856 v 0 0 q 0.30809,-0.153976 0.50047,-0.423422 v 0 0 q 0.1848,-0.269432 0.1848,-0.677449 v 0 0 q 0,-0.369513 -0.13874,-0.623569 v 0 0 q -0.13874,-0.246346 -0.40035,-0.400307 v 0 0 q -0.26933,-0.153961 -0.63121,-0.215552 v 0 0 q -0.3696,-0.06165 -0.82373,-0.06165 z m -1.34724,-3.148624 v 2.301808 h 1.10079 v 0 q 0.39263,0 0.73147,-0.05392 v 0 0 q 0.34643,-0.05392 0.60046,-0.192452 v 0 0 q 0.25402,-0.138599 0.4002,-0.361831 v 0 0 q 0.14633,-0.230942 0.14633,-0.577369 v 0 0 q 0,-0.323327 -0.15405,-0.538893 v 0 0 q -0.14618,-0.223246 -0.41566,-0.361817 v 0 0 q -0.26175,-0.130875 -0.6159,-0.192451 v 0 0 q -0.35415,-0.06923 -0.75436,-0.06923 v 0 0 q -0.40035,0 -0.62362,0.01545 v 0 0 q -0.231,0.0072 -0.41566,0.03075 z m 5.51966,3.833768 v 0 0 q 0,-0.739039 0.21555,-1.293308 v 0 0 q 0.21556,-0.561993 0.56971,-0.92381 v 0 0 q 0.36187,-0.369527 0.82373,-0.554283 v 0 0 q 0.46185,-0.177061 0.94688,-0.177061 v 0 0 q 1.13168,0 1.73213,0.700549 v 0 0 q 0.60818,0.708244 0.60818,2.155542 v 0 0 q 0,0.06165 0,0.161671 v 0 0 q 0,0.107847 -0.0157,0.192451 v 0 h -3.83373 v 0 q 0.0615,0.869915 0.50806,1.324118 v 0 0 q 0.43882,0.454202 1.37798,0.454202 v 0 0 q 0.53123,0 0.89296,-0.0924 v 0 0 q 0.35429,-0.0924 0.53895,-0.177061 v 0 l 0.13874,0.839119 v 0 q -0.17708,0.100124 -0.63893,0.207856 v 0 0 q -0.45427,0.107705 -1.03928,0.107705 v 0 0 q -0.73133,0 -1.26256,-0.223261 v 0 0 q -0.5388,-0.223247 -0.88537,-0.60815 v 0 0 q -0.33871,-0.392626 -0.50806,-0.92381 v 0 0 q -0.16921,-0.531183 -0.16921,-1.170156 z m 1.07004,-0.546574 h 2.77914 v 0 q 0.0143,-0.677463 -0.33856,-1.116261 v 0 0 q -0.35416,-0.438812 -0.96248,-0.438812 v 0 0 q -0.34642,0 -0.61576,0.138599 v 0 0 q -0.26175,0.130876 -0.44655,0.346427 v 0 0 q -0.17707,0.215551 -0.28492,0.500388 v 0 0 q -0.10012,0.277142 -0.13016,0.569688 z m 6.20493,-4.003133 v 1.739815 h 2.12476 v 0.83912 h -2.12476 v 2.586645 0 q 0,0.423408 0.0686,0.692854 v 0 0 q 0.0615,0.277142 0.19253,0.431103 v 0 0 q 0.13016,0.16167 0.3234,0.223246 v 0 0 q 0.19238,0.06165 0.45413,0.06165 v 0 0 q 0.4464,0 0.7236,-0.100124 v 0 0 q 0.2772,-0.100123 0.38491,-0.146266 v 0 l 0.19252,0.831425 v 0 q -0.15405,0.07695 -0.53123,0.184756 v 0 0 q -0.37718,0.115428 -0.8622,0.115428 v 0 0 q -0.5697,0 -0.9393,-0.146266 v 0 0 q -0.36946,-0.146266 -0.60046,-0.431103 v 0 0 q -0.22313,-0.292531 -0.31553,-0.715939 v 0 0 q -0.093,-0.431117 -0.093,-0.993095 v 0 -4.996215 z m 5.29638,6.620559 v 0 0 q 0.35415,0 0.63135,-0.01545 v 0 0 q 0.26948,-0.01545 0.45413,-0.06165 v 0 -1.670545 0 q -0.10727,-0.05392 -0.34642,-0.0924 v 0 0 q -0.24631,-0.03848 -0.59273,-0.03848 v 0 0 q -0.22328,0 -0.47731,0.03848 v 0 0 q -0.25402,0.03075 -0.46185,0.130875 v 0 0 q -0.21555,0.100124 -0.35415,0.277142 v 0 0 q -0.13874,0.184756 -0.13874,0.469607 v 0 0 q 0,0.538879 0.34642,0.75443 v 0 0 q 0.34643,0.207856 0.93916,0.207856 z m -0.0915,-5.019314 v 0 0 q 0.60818,0 1.02383,0.153975 v 0 0 q 0.41566,0.153961 0.66983,0.438798 v 0 0 q 0.24616,0.284837 0.35415,0.685159 v 0 0 q 0.10728,0.392612 0.10728,0.862205 v 0 3.502745 0 q -0.12301,0.02303 -0.35415,0.06165 v 0 0 q -0.23873,0.03848 -0.52351,0.06923 v 0 0 q -0.2925,0.03075 -0.63135,0.06165 v 0 0 q -0.3387,0.02303 -0.6774,0.02303 v 0 0 q -0.46958,0 -0.86979,-0.0924 v 0 0 q -0.40049,-0.100123 -0.693,-0.307922 v 0 0 q -0.29236,-0.215551 -0.45413,-0.554283 v 0 0 q -0.16162,-0.346427 -0.16162,-0.831425 v 0 0 q 0,-0.461898 0.19238,-0.800629 v 0 0 q 0.18479,-0.331023 0.50805,-0.538879 v 0 0 q 0.3234,-0.200161 0.7545,-0.300227 v 0 0 q 0.4311,-0.100123 0.90841,-0.100123 v 0 0 q 0.1539,0 0.31567,0.01545 v 0 0 q 0.16163,0.02303 0.30781,0.0462 v 0 0 q 0.13874,0.03075 0.24645,0.0462 v 0 0 q 0.10727,0.02303 0.1539,0.03848 v 0 -0.284837 0 q 0,-0.246346 -0.0543,-0.492693 v 0 0 q -0.0544,-0.238637 -0.19253,-0.423407 v 0 0 q -0.13874,-0.192452 -0.3849,-0.307937 v 0 0 Q 296.41263,18.178725 296.02,18.178725 v 0 0 q -0.49275,0 -0.8622,0.06923 v 0 0 q -0.37732,0.06923 -0.56198,0.146266 v 0 l -0.11586,-0.831425 v 0 q 0.19253,-0.08468 0.6468,-0.169351 v 0 0 q 0.45413,-0.07695 0.97763,-0.07695 z"/> <path style="stroke-width: 0.643437;" fill="#ffffff" id="stakewise-logo-text" d="m 12.637154,33.899361 v 0 0 q 1.37052,0 1.37052,-0.932988 v 0 0 q 0,-0.289542 -0.122248,-0.495443 v 0 0 q -0.122248,-0.199462 -0.328162,-0.347452 v 0 0 q -0.212327,-0.14799 -0.476139,-0.257374 v 0 0 q -0.263799,-0.109448 -0.55978,-0.218766 v 0 0 Q 12.17388,31.531491 11.871473,31.383527 v 0 0 q -0.308845,-0.14799 -0.53405,-0.353891 v 0 0 q -0.225205,-0.199463 -0.353891,-0.482565 v 0 0 Q 10.854884,30.27038 10.854884,29.871456 v 0 0 q 0,-0.817165 0.553354,-1.274002 v 0 0 q 0.559793,-0.463274 1.54424,-0.463274 v 0 0 q 0.566218,0 1.029492,0.122248 v 0 0 q 0.463275,0.122248 0.682041,0.263799 v 0 l -0.283104,0.714222 v 0 q -0.186596,-0.115848 -0.559792,-0.231644 v 0 0 Q 13.44792,28.893356 12.952478,28.893356 v 0 0 q -0.250935,0 -0.469701,0.05146 v 0 0 q -0.218766,0.05786 -0.379634,0.160869 v 0 0 q -0.160855,0.109448 -0.257374,0.276676 v 0 0 q -0.09012,0.167281 -0.09012,0.392486 v 0 0 q 0,0.250947 0.09652,0.424667 v 0 0 q 0.09652,0.167294 0.276677,0.30242 v 0 0 q 0.180158,0.128647 0.424666,0.238069 v 0 0 q 0.238071,0.109449 0.521186,0.21234 v 0 0 q 0.405363,0.167281 0.746377,0.328136 v 0 0 q 0.334588,0.160868 0.585522,0.386073 v 0 0 q 0.244509,0.225191 0.379634,0.53405 v 0 0 q 0.135112,0.315271 0.135112,0.752816 v 0 0 q 0,0.823591 -0.598386,1.261123 v 0 0 q -0.5984,0.443971 -1.685804,0.443971 v 0 0 q -0.373182,0 -0.68204,-0.05146 v 0 0 q -0.308846,-0.05146 -0.553354,-0.115848 v 0 0 q -0.244508,-0.07079 -0.418228,-0.141551 v 0 0 q -0.173733,-0.07719 -0.276677,-0.135126 v 0 l 0.263812,-0.720634 v 0 q 0.205888,0.115848 0.630555,0.263799 v 0 0 q 0.424667,0.141565 1.035932,0.141565 z m 4.072939,-5.514233 v 1.45416 h 1.769443 v 0.701343 h -1.769443 v 2.16193 0 q 0,0.353891 0.05146,0.579096 v 0 0 q 0.05146,0.231644 0.160868,0.360331 v 0 0 q 0.109448,0.135112 0.270237,0.186584 v 0 0 q 0.160855,0.05146 0.379635,0.05146 v 0 0 q 0.379621,0 0.604825,-0.08358 v 0 0 q 0.231631,-0.08359 0.32171,-0.122247 v 0 l 0.160869,0.694905 v 0 q -0.122249,0.06439 -0.437546,0.154429 v 0 0 q -0.315286,0.09651 -0.720649,0.09651 v 0 0 q -0.47614,0 -0.791424,-0.122247 v 0 0 q -0.308845,-0.122248 -0.495443,-0.360318 v 0 0 q -0.193023,-0.244507 -0.270237,-0.598399 v 0 0 q -0.07719,-0.360318 -0.07719,-0.830031 v 0 -4.175895 z m 4.420403,5.533537 v 0 0 q 0.295981,0 0.527611,-0.01306 v 0 0 q 0.23163,-0.01306 0.379621,-0.05146 v 0 -1.396249 0 q -0.09012,-0.04505 -0.289541,-0.07719 v 0 0 q -0.205902,-0.03213 -0.489005,-0.03213 v 0 0 q -0.193036,0 -0.405363,0.03213 v 0 0 q -0.21234,0.02573 -0.386059,0.109317 v 0 0 q -0.173733,0.08358 -0.289556,0.231631 v 0 0 q -0.122247,0.154429 -0.122247,0.392498 v 0 0 q 0,0.450411 0.289541,0.630569 v 0 0 q 0.289542,0.173733 0.784998,0.173733 z m -0.07079,-4.195199 v 0 0 q 0.501882,0 0.849335,0.128648 v 0 0 q 0.347465,0.128646 0.559792,0.366755 v 0 0 q 0.21234,0.23807 0.302419,0.572657 v 0 0 q 0.09012,0.32815 0.09012,0.720648 v 0 2.927623 0 q -0.109448,0.01933 -0.302419,0.05146 v 0 0 q -0.193023,0.03213 -0.437532,0.05786 v 0 0 q -0.244508,0.02573 -0.527624,0.05146 v 0 0 q -0.283103,0.01933 -0.55978,0.01933 v 0 0 q -0.398938,0 -0.733512,-0.07719 v 0 0 q -0.334586,-0.08359 -0.572656,-0.257378 v 0 0 q -0.244508,-0.180172 -0.379634,-0.463274 v 0 0 Q 19.2131,33.532514 19.2131,33.12715 v 0 0 q 0,-0.386047 0.154417,-0.669163 v 0 0 q 0.160855,-0.276676 0.431106,-0.450409 v 0 0 q 0.270238,-0.167294 0.630568,-0.250934 v 0 0 q 0.360318,-0.08359 0.752816,-0.08359 v 0 0 q 0.128648,0 0.263812,0.01306 v 0 0 q 0.135112,0.01933 0.257374,0.03866 v 0 0 q 0.122247,0.02573 0.212326,0.03866 v 0 0 q 0.09012,0.01933 0.122248,0.03213 v 0 -0.238069 0 q 0,-0.205901 -0.04506,-0.411803 v 0 0 Q 21.947647,30.94623 21.83184,30.791813 v 0 0 q -0.115849,-0.160867 -0.315272,-0.257372 v 0 0 q -0.205901,-0.09012 -0.527624,-0.09012 v 0 0 q -0.418228,0 -0.727073,0.05786 v 0 0 q -0.308859,0.05786 -0.463275,0.122247 v 0 L 19.695679,29.92951 v 0 q 0.167293,-0.07079 0.540488,-0.141551 v 0 0 q 0.379626,-0.06439 0.823597,-0.06439 z m 4.883679,2.219853 v 0 0 q 0.270237,0.212327 0.566218,0.514746 v 0 0 q 0.302419,0.308846 0.5984,0.662737 v 0 0 q 0.289541,0.353891 0.553353,0.720648 v 0 0 q 0.263799,0.366756 0.443959,0.682041 v 0 h -0.984447 v 0 q -0.186596,-0.315285 -0.43753,-0.643434 v 0 0 q -0.24451,-0.328162 -0.514748,-0.630568 v 0 0 Q 25.898339,32.94707 25.615223,32.696136 v 0 0 q -0.276676,-0.257374 -0.527611,-0.424668 v 0 2.252023 h -0.842895 v -6.846146 l 0.842895,-0.14799 v 4.2724 0 q 0.212341,-0.218766 0.476139,-0.476139 v 0 0 q 0.257373,-0.263799 0.514747,-0.534051 v 0 0 q 0.250947,-0.270237 0.476152,-0.514746 v 0 0 q 0.225191,-0.250934 0.38606,-0.437531 v 0 h 0.984446 v 0 q -0.212327,0.225191 -0.450409,0.495442 v 0 0 q -0.244496,0.270238 -0.508308,0.540476 v 0 0 q -0.257373,0.27669 -0.527611,0.553367 v 0 0 q -0.263812,0.276676 -0.495443,0.514746 z m 2.747464,0.244509 v 0 0 q 0,-0.617704 0.180158,-1.080978 v 0 0 q 0.18016,-0.469713 0.47614,-0.77212 v 0 0 q 0.295981,-0.308845 0.68204,-0.463274 v 0 0 q 0.38606,-0.14799 0.791424,-0.14799 v 0 0 q 0.945852,0 1.45416,0.585522 v 0 0 q 0.501881,0.591961 0.501881,1.801625 v 0 0 q 0,0.05146 0,0.135112 v 0 0 q 0,0.09012 -0.0065,0.160869 v 0 h -3.210739 v 0 q 0.05786,0.727073 0.424667,1.106707 v 0 0 q 0.373195,0.379621 1.151754,0.379621 v 0 0 q 0.443957,0 0.746377,-0.07719 v 0 0 q 0.302419,-0.07719 0.456835,-0.14799 v 0 l 0.115848,0.701345 v 0 q -0.15443,0.08358 -0.540489,0.173732 v 0 0 q -0.379621,0.09012 -0.868638,0.09012 v 0 0 q -0.611252,0 -1.055222,-0.186597 v 0 0 q -0.443956,-0.1866 -0.733511,-0.508322 v 0 0 Q 28.967493,33.60987 28.825941,33.1659 v 0 0 q -0.135125,-0.443971 -0.135125,-0.978008 z m 0.887941,-0.456849 h 2.322785 v 0 q 0.01306,-0.566218 -0.283102,-0.932974 v 0 0 Q 31.32893,30.431249 30.814171,30.431249 v 0 0 q -0.289542,0 -0.508308,0.115847 v 0 0 q -0.218766,0.109449 -0.373195,0.289542 v 0 0 q -0.154416,0.180159 -0.23807,0.418228 v 0 0 q -0.09012,0.231631 -0.115848,0.47614 z m 7.875626,-1.441295 v 0 0 q -0.379621,1.203226 -0.765681,2.232719 v 0 0 q -0.38606,1.029492 -0.778559,2.001088 v 0 h -0.868637 v 0 q -0.482578,-1.37696 -0.842896,-2.908321 v 0 0 q -0.366756,-1.531374 -0.68204,-3.333 v 0 h 0.92011 v 0 q 0.122248,0.701345 0.257374,1.402688 v 0 0 q 0.135125,0.701344 0.283115,1.364081 v 0 0 q 0.141552,0.662737 0.289542,1.267562 v 0 0 q 0.141551,0.604826 0.29598,1.113147 v 0 0 q 0.36033,-0.945853 0.765694,-2.071864 v 0 0 q 0.405363,-1.132437 0.752816,-2.342088 v 0 h 0.759255 v 0 q 0.353879,1.209651 0.76568,2.342088 v 0 0 q 0.411803,1.126011 0.77212,2.071864 v 0 0 q 0.14799,-0.501882 0.289554,-1.106708 v 0 0 q 0.147991,-0.604826 0.283104,-1.261123 v 0 0 q 0.14155,-0.662736 0.276676,-1.370519 v 0 0 q 0.135126,-0.707783 0.263812,-1.409128 v 0 h 0.887942 v 0 q -0.321723,1.801626 -0.688479,3.333 v 0 0 q -0.366756,1.531361 -0.83003,2.908321 v 0 h -0.875065 v 0 q -0.398937,-0.971596 -0.778558,-2.001088 v 0 0 Q 37.834051,31.49291 37.454416,30.289684 Z m 5.739438,-0.450396 v 4.684203 H 42.35096 v -4.684203 z m -0.424665,-0.849335 v 0 0 q -0.225205,0 -0.38606,-0.14799 v 0 0 q -0.154416,-0.14799 -0.154416,-0.398938 v 0 0 q 0,-0.250934 0.154416,-0.40535 v 0 0 q 0.160855,-0.14799 0.38606,-0.14799 v 0 0 q 0.225204,0 0.379621,0.14799 v 0 0 q 0.160868,0.154416 0.160868,0.40535 v 0 0 q 0,0.250948 -0.160868,0.398938 v 0 0 q -0.154417,0.14799 -0.379621,0.14799 z m 2.953365,4.928712 v 0 0 q 0.514747,0 0.759256,-0.135126 v 0 0 q 0.250934,-0.135126 0.250934,-0.431106 v 0 0 q 0,-0.308845 -0.244496,-0.489004 v 0 0 q -0.244508,-0.180158 -0.8043,-0.405364 v 0 0 Q 45.413708,32.348748 45.1692,32.2393 v 0 0 q -0.250934,-0.115849 -0.431106,-0.263812 v 0 0 q -0.180159,-0.15443 -0.283103,-0.373195 v 0 0 q -0.109448,-0.212327 -0.109448,-0.527611 v 0 0 q 0,-0.62413 0.456835,-0.990886 v 0 0 q 0.463275,-0.36033 1.254699,-0.36033 v 0 0 q 0.199461,0 0.392498,0.01933 v 0 0 q 0.199462,0.02573 0.373182,0.05786 v 0 0 q 0.167294,0.02573 0.302419,0.06439 v 0 0 q 0.128648,0.03866 0.199463,0.06439 v 0 l -0.154417,0.720647 v 0 q -0.135125,-0.07079 -0.418241,-0.147991 v 0 0 q -0.289542,-0.07719 -0.694904,-0.07719 v 0 0 q -0.353892,0 -0.611266,0.135125 v 0 0 q -0.263799,0.141564 -0.263799,0.437531 v 0 0 q 0,0.15443 0.05786,0.270252 v 0 0 q 0.05786,0.122247 0.180172,0.212326 v 0 0 q 0.122248,0.09652 0.302406,0.180159 v 0 0 q 0.180159,0.07719 0.431093,0.167307 v 0 0 q 0.334601,0.128647 0.5984,0.250935 v 0 0 q 0.257373,0.122247 0.443971,0.283102 v 0 0 q 0.186598,0.160868 0.283115,0.392499 v 0 0 q 0.09652,0.225205 0.09652,0.559793 v 0 0 q 0,0.649872 -0.476152,0.984447 v 0 0 q -0.482578,0.334587 -1.376946,0.334587 v 0 0 q -0.624129,0 -0.971581,-0.109449 v 0 0 q -0.353892,-0.102925 -0.47614,-0.154423 v 0 l 0.147991,-0.720647 v 0 q 0.147977,0.05146 0.463261,0.160855 v 0 0 q 0.315284,0.109448 0.836469,0.109448 z m 2.663825,-1.730851 v 0 0 q 0,-0.61769 0.180158,-1.080964 v 0 0 q 0.18016,-0.469713 0.482579,-0.77212 v 0 0 q 0.29598,-0.308845 0.68204,-0.463274 v 0 0 q 0.38606,-0.14799 0.791423,-0.14799 v 0 0 q 0.945852,0 1.45416,0.585522 v 0 0 q 0.501882,0.591961 0.501882,1.801625 v 0 0 q 0,0.05146 0,0.135112 v 0 0 q 0,0.09012 -0.0065,0.160855 v 0 h -3.21074 v 0 q 0.05786,0.727087 0.424668,1.106721 v 0 0 q 0.366756,0.379621 1.151753,0.379621 v 0 0 q 0.443971,0 0.746377,-0.07719 v 0 0 q 0.302419,-0.07719 0.45041,-0.14799 v 0 l 0.122248,0.701345 v 0 q -0.154416,0.08358 -0.540476,0.173732 v 0 0 q -0.379634,0.09012 -0.868638,0.09012 v 0 0 q -0.611265,0 -1.055236,-0.186597 v 0 0 q -0.450396,-0.1866 -0.733499,-0.508322 v 0 0 Q 48.669434,33.60987 48.527882,33.1659 v 0 0 Q 48.38633,32.721929 48.38633,32.187879 Z m 0.894367,-0.456835 h 2.322798 v 0 q 0.01306,-0.566218 -0.283115,-0.932974 v 0 0 Q 51.030886,30.431249 50.51614,30.431249 v 0 0 q -0.289542,0 -0.508308,0.115847 v 0 0 q -0.225205,0.109449 -0.373195,0.289542 v 0 0 q -0.154429,0.180159 -0.23807,0.418228 v 0 0 q -0.09012,0.231631 -0.115847,0.47614 z"/> <path fill="#ffffff" style="stroke-width: 0.803798;" id="stakewise-banner-text" d="m 77.66541,23.311655 h -5.04787 v -7.79685 h 4.76651 v 0.932409 h -3.67333 v 2.314941 h 3.26343 v 0.91633 h -3.26343 v 2.700762 h 3.95469 z m 2.2908,-7.66824 v 1.816582 h 2.21848 v 0.876141 h -2.21848 v 2.700767 0 q 0,0.442088 0.0722,0.723418 v 0 0 q 0.0642,0.289374 0.20108,0.450128 v 0 0 q 0.13686,0.168804 0.33754,0.233118 v 0 0 q 0.20108,0.06433 0.4742,0.06433 v 0 0 q 0.4662,0 0.75557,-0.104495 v 0 0 q 0.28925,-0.104496 0.40177,-0.152727 v 0 l 0.20108,0.868106 v 0 q -0.16078,0.0804 -0.55461,0.192901 v 0 0 q -0.39378,0.120565 -0.90023,0.120565 v 0 0 q -0.59483,0 -0.98064,-0.152728 v 0 0 q -0.3858,-0.152726 -0.62697,-0.450128 v 0 0 q -0.233,-0.305453 -0.32955,-0.747532 v 0 0 q -0.0965,-0.450126 -0.0965,-1.036901 v 0 -5.216655 z m 4.58969,7.66824 h -1.04491 v -8.55242 l 1.04491,-0.184884 v 2.998171 0 q 0.29764,-0.112553 0.62698,-0.176822 v 0 0 q 0.32955,-0.06431 0.6591,-0.06431 v 0 0 q 0.69933,0 1.1575,0.200962 v 0 0 q 0.4662,0.192902 0.73949,0.546582 v 0 0 q 0.27329,0.361708 0.38581,0.852027 v 0 0 q 0.11244,0.498355 0.11244,1.093164 v 0 3.287538 h -1.04495 v -3.062472 0 q 0,-0.538545 -0.0722,-0.92437 v 0 0 q -0.0722,-0.377785 -0.24096,-0.618923 v 0 0 q -0.16878,-0.23312 -0.45017,-0.345628 v 0 0 q -0.28127,-0.104495 -0.69927,-0.104495 v 0 0 q -0.16877,0 -0.34551,0.02393 v 0 0 q -0.18471,0.02393 -0.3455,0.04823 v 0 0 q -0.16079,0.03232 -0.29722,0.06432 v 0 0 q -0.12846,0.03232 -0.18472,0.05626 v 0 z m 9.73402,-5.811464 v 0 0 q 0,0.409942 -0.16079,0.78772 v 0 0 q -0.16079,0.377786 -0.43409,0.739497 v 0 0 q -0.26531,0.369725 -0.60283,0.723417 v 0 0 q -0.33753,0.353688 -0.67519,0.69127 v 0 0 q -0.19311,0.192903 -0.45012,0.450127 v 0 0 q -0.24935,0.257216 -0.47426,0.538542 v 0 0 q -0.22501,0.281314 -0.37781,0.538548 v 0 0 Q 90.952,22.226528 90.952,22.419438 v 0 h 3.59303 v 0.892217 h -4.72638 v 0 q -0.0168,-0.07233 -0.0168,-0.136649 v 0 0 q 0,-0.06432 0,-0.120563 v 0 0 q 0,-0.530505 0.17673,-0.988672 v 0 0 q 0.17674,-0.458165 0.45814,-0.860065 v 0 0 q 0.28128,-0.401883 0.62699,-0.763605 v 0 0 q 0.34549,-0.361708 0.68323,-0.69931 v 0 0 q 0.28128,-0.273295 0.53854,-0.530504 v 0 0 q 0.24936,-0.265276 0.45011,-0.530508 v 0 0 q 0.19312,-0.265235 0.3136,-0.546587 v 0 0 q 0.12047,-0.281314 0.12047,-0.594808 v 0 0 q 0,-0.337611 -0.11244,-0.578736 v 0 0 q -0.10456,-0.233119 -0.28128,-0.393865 v 0 0 q -0.18471,-0.152726 -0.42602,-0.22506 v 0 0 q -0.24096,-0.0804 -0.50642,-0.0804 v 0 0 q -0.32955,0 -0.60283,0.09647 v 0 0 q -0.26533,0.08841 -0.48228,0.200963 v 0 0 q -0.20906,0.120564 -0.36188,0.249197 v 0 0 q -0.14483,0.128587 -0.22502,0.200964 v 0 l -0.51443,-0.74753 v 0 q 0.10454,-0.112554 0.30562,-0.273297 v 0 0 q 0.20109,-0.160743 0.48228,-0.305453 v 0 0 q 0.28128,-0.152724 0.62694,-0.249198 v 0 0 q 0.35347,-0.104495 0.75558,-0.104495 v 0 0 q 1.22983,0 1.84068,0.570696 v 0 0 q 0.61092,0.570701 0.61092,1.599562 z m 5.95616,5.055892 v 0 0 q 0.64303,0 0.94846,-0.168806 v 0 0 q 0.3136,-0.168804 0.3136,-0.538546 v 0 0 q 0,-0.385805 -0.3052,-0.610885 v 0 0 q -0.30562,-0.225059 -1.00477,-0.506394 v 0 0 q -0.33752,-0.136648 -0.64302,-0.273295 v 0 0 q -0.31359,-0.144667 -0.53857,-0.32955 v 0 0 Q 98.78155,19.935704 98.6531,19.6624 v 0 0 q -0.13686,-0.265234 -0.13686,-0.65911 v 0 0 q 0,-0.779686 0.57069,-1.237852 v 0 0 q 0.57875,-0.450128 1.5674,-0.450128 v 0 0 q 0.24936,0 0.49034,0.02393 v 0 0 q 0.24893,0.03232 0.46619,0.07233 v 0 0 q 0.20907,0.03232 0.37783,0.0804 v 0 0 q 0.16079,0.04823 0.24894,0.0804 v 0 l -0.19311,0.900253 v 0 q -0.16876,-0.08841 -0.52245,-0.184884 v 0 0 q -0.36186,-0.09647 -0.86811,-0.09647 v 0 0 q -0.44211,0 -0.7636,0.168804 v 0 0 q -0.32955,0.176823 -0.32955,0.546586 v 0 0 q 0,0.192902 0.0722,0.337609 v 0 0 q 0.0722,0.152727 0.225,0.265237 v 0 0 q 0.15281,0.120563 0.37783,0.225059 v 0 0 q 0.22501,0.09647 0.53853,0.20898 v 0 0 q 0.41813,0.160745 0.74754,0.313471 v 0 0 q 0.3216,0.152727 0.55462,0.353689 v 0 0 q 0.233,0.200963 0.35348,0.490316 v 0 0 q 0.12047,0.281313 0.12047,0.699305 v 0 0 q 0,0.811838 -0.59483,1.229811 v 0 0 q -0.60286,0.417962 -1.72013,0.417962 v 0 0 q -0.77971,0 -1.21376,-0.136648 v 0 0 q -0.44209,-0.12863 -0.59477,-0.192901 v 0 l 0.18472,-0.900253 v 0 q 0.18471,0.06431 0.57873,0.200961 v 0 0 q 0.39379,0.136647 1.04496,0.136647 z m 4.63792,-6.912668 v 1.816582 h 2.21848 v 0.876141 H 104.874 v 2.700767 0 q 0,0.442088 0.0642,0.723418 v 0 0 q 0.0722,0.289374 0.20109,0.450128 v 0 0 q 0.13686,0.168804 0.33752,0.233118 v 0 0 q 0.20906,0.06433 0.47426,0.06433 v 0 0 q 0.47421,0 0.76359,-0.104495 v 0 0 q 0.28127,-0.104496 0.39378,-0.152727 v 0 l 0.20906,0.868106 v 0 q -0.16079,0.0804 -0.55461,0.192901 v 0 0 q -0.39378,0.120565 -0.90028,0.120565 v 0 0 q -0.59477,0 -0.98062,-0.152728 v 0 0 q -0.39379,-0.152726 -0.62695,-0.450128 v 0 0 q -0.24096,-0.305452 -0.32955,-0.747531 v 0 0 q -0.0965,-0.450126 -0.0965,-1.036901 v 0 -5.216655 z m 5.52206,6.912668 v 0 0 q 0.36986,0 0.65916,-0.01596 v 0 0 q 0.28924,-0.01596 0.48226,-0.06433 v 0 -1.744243 0 q -0.11256,-0.05626 -0.36985,-0.09647 v 0 0 q -0.24893,-0.0403 -0.61086,-0.0403 v 0 0 q -0.24097,0 -0.49835,0.0403 v 0 0 q -0.26533,0.03232 -0.49034,0.136649 v 0 0 q -0.21704,0.104496 -0.36186,0.289374 v 0 0 q -0.14485,0.192903 -0.14485,0.490315 v 0 0 q 0,0.562661 0.35347,0.787725 v 0 0 q 0.36189,0.21704 0.98064,0.21704 z m -0.0887,-5.240769 v 0 0 q 0.62698,0 1.06101,0.160745 v 0 0 q 0.43405,0.160746 0.69933,0.458164 v 0 0 q 0.26533,0.297391 0.37782,0.715382 v 0 0 q 0.11257,0.409943 0.11257,0.900255 v 0 3.657282 0 q -0.13643,0.02393 -0.37782,0.06431 v 0 0 q -0.24097,0.0403 -0.54659,0.07233 v 0 0 q -0.3052,0.03232 -0.6591,0.06433 v 0 0 q -0.35348,0.02393 -0.69931,0.02393 v 0 0 q -0.49836,0 -0.91632,-0.09647 v 0 0 q -0.41015,-0.104496 -0.7154,-0.321531 v 0 0 q -0.30562,-0.225059 -0.47422,-0.578735 v 0 0 q -0.16876,-0.361708 -0.16876,-0.868103 v 0 0 q 0,-0.482278 0.20108,-0.835951 v 0 0 q 0.19313,-0.345627 0.53052,-0.562662 v 0 0 q 0.33753,-0.208979 0.78769,-0.31347 v 0 0 q 0.45016,-0.104496 0.94852,-0.104496 v 0 0 q 0.15281,0 0.32157,0.01596 v 0 0 q 0.16877,0.02393 0.32157,0.04823 v 0 0 q 0.15281,0.03232 0.26532,0.04823 v 0 0 q 0.11257,0.02393 0.16079,0.0403 v 0 -0.297393 0 q 0,-0.257216 -0.0562,-0.514428 v 0 0 q -0.0562,-0.2492 -0.20906,-0.442092 v 0 0 q -0.14483,-0.200964 -0.39378,-0.321532 v 0 0 q -0.25733,-0.112504 -0.65911,-0.112504 v 0 0 q -0.52243,0 -0.90828,0.07233 v 0 0 q -0.3858,0.07233 -0.57871,0.152725 v 0 l -0.12047,-0.868105 v 0 q 0.2011,-0.08841 0.67518,-0.176825 v 0 0 q 0.46621,-0.0804 1.02082,-0.0804 z m 6.10082,2.77311 v 0 0 q 0.33752,0.265235 0.71539,0.643037 v 0 0 q 0.37783,0.385804 0.73949,0.827913 v 0 0 q 0.36986,0.442087 0.69127,0.900254 v 0 0 q 0.32955,0.458166 0.55465,0.852027 v 0 h -1.22983 v 0 q -0.23299,-0.393865 -0.54659,-0.8038 v 0 0 q -0.30561,-0.409943 -0.64303,-0.78772 v 0 0 q -0.33753,-0.377787 -0.69125,-0.691269 v 0 0 q -0.3455,-0.321533 -0.65915,-0.530508 v 0 2.813297 h -1.04494 v -8.55242 l 1.04494,-0.184884 v 5.337227 0 q 0.26533,-0.273295 0.59482,-0.594812 v 0 0 q 0.32957,-0.329552 0.64304,-0.667153 v 0 0 q 0.3136,-0.33761 0.59482,-0.643037 v 0 0 q 0.28128,-0.31347 0.48228,-0.546587 v 0 h 1.22983 v 0 q -0.25735,0.281314 -0.56266,0.618928 v 0 0 q -0.30563,0.337609 -0.63502,0.67519 v 0 0 q -0.32157,0.34563 -0.65913,0.691266 v 0 0 q -0.32955,0.345627 -0.61893,0.643041 z m 4.80673,-2.628427 v 5.851658 h -1.05297 v -5.851658 z m -0.53053,-1.06101 v 0 0 q -0.28125,0 -0.48225,-0.184885 v 0 0 Q 120.009,16.029218 120.009,15.715748 v 0 0 q 0,-0.313472 0.19313,-0.506395 v 0 0 q 0.20108,-0.184883 0.48225,-0.184883 v 0 0 q 0.28129,0 0.47426,0.184883 v 0 0 q 0.20109,0.192902 0.20109,0.506395 v 0 0 q 0,0.31347 -0.20109,0.498354 v 0 0 q -0.1931,0.184885 -0.47426,0.184885 z m 2.33104,6.912668 v -5.682857 0 q 0.35348,-0.08841 0.95654,-0.192901 v 0 0 q 0.59479,-0.104496 1.36644,-0.104496 v 0 0 q 0.69931,0 1.16551,0.200961 v 0 0 q 0.45818,0.192902 0.73147,0.546584 v 0 0 q 0.28127,0.361706 0.39377,0.852027 v 0 0 q 0.11256,0.498353 0.11256,1.093163 v 0 3.287538 h -1.0529 v -3.062475 0 q 0,-0.538542 -0.0722,-0.924367 v 0 0 q -0.0723,-0.377786 -0.24098,-0.618926 v 0 0 q -0.16875,-0.233118 -0.45012,-0.345627 v 0 0 q -0.28126,-0.104496 -0.6993,-0.104496 v 0 0 q -0.16877,0 -0.34551,0.01596 v 0 0 q -0.17674,0.008 -0.3455,0.02393 v 0 0 q -0.16078,0.01596 -0.28925,0.0403 v 0 0 q -0.12846,0.02393 -0.18471,0.03232 v 0 4.943362 z m 10.12789,-0.337611 v -0.249156 0 q -0.13687,0.08841 -0.53052,0.233119 v 0 0 q -0.38581,0.136647 -0.90024,0.136647 v 0 0 q -0.53051,0 -0.99676,-0.168805 v 0 0 q -0.46619,-0.168805 -0.81983,-0.522472 v 0 0 q -0.34551,-0.353687 -0.5466,-0.884176 v 0 0 q -0.20108,-0.530507 -0.20108,-1.261965 v 0 0 q 0,-0.635002 0.18471,-1.173549 v 0 0 q 0.19312,-0.530504 0.56267,-0.924367 v 0 0 q 0.36187,-0.385806 0.89223,-0.602851 v 0 0 q 0.5305,-0.225059 1.18961,-0.225059 v 0 0 q 0.73147,0 1.27802,0.112554 v 0 0 q 0.54659,0.104495 0.91636,0.192901 v 0 5.224695 0 q 0,1.350379 -0.6913,1.95323 v 0 0 q -0.69928,0.610888 -2.12201,0.610888 v 0 0 q -0.54659,0 -1.03689,-0.08841 v 0 0 q -0.49033,-0.08841 -0.85204,-0.21704 v 0 l 0.19312,-0.908295 v 0 q 0.31358,0.120563 0.77165,0.217042 v 0 0 q 0.45818,0.09647 0.94846,0.09647 v 0 0 q 0.93244,0 1.34235,-0.369768 v 0 0 q 0.41812,-0.369766 0.41812,-1.181584 z m -0.0168,-1.17355 v -3.416142 0 q -0.1528,-0.04823 -0.41812,-0.08841 v 0 0 q -0.26533,-0.0403 -0.7154,-0.0403 v 0 0 q -0.84398,0 -1.30216,0.554618 v 0 0 q -0.45819,0.546587 -0.45819,1.462916 v 0 0 q 0,0.506393 0.13644,0.868105 v 0 0 q 0.12847,0.353688 0.34551,0.59481 v 0 0 q 0.21703,0.233118 0.50642,0.345627 v 0 0 q 0.28924,0.112553 0.58676,0.112553 v 0 0 q 0.41812,0 0.77165,-0.112553 v 0 0 q 0.34549,-0.120563 0.54659,-0.281313 z m 5.44974,1.511144 v -5.682857 0 q 0.36188,-0.08841 0.94848,-0.192901 v 0 0 q 0.59483,-0.104496 1.36648,-0.104496 v 0 0 q 0.56266,0 0.94846,0.152726 v 0 0 q 0.37783,0.152727 0.64307,0.450126 v 0 0 q 0.0723,-0.05626 0.24097,-0.160743 v 0 0 q 0.16876,-0.104496 0.41813,-0.192902 v 0 0 q 0.24895,-0.09647 0.55461,-0.168806 v 0 0 q 0.30563,-0.08038 0.65109,-0.08038 v 0 0 q 0.67517,0 1.10119,0.200962 v 0 0 q 0.42601,0.192902 0.66716,0.554618 v 0 0 q 0.24936,0.361707 0.32954,0.860066 v 0 0 q 0.0887,0.490319 0.0887,1.077091 v 0 3.287537 h -1.05297 v -3.062474 0 q 0,-0.514434 -0.0483,-0.892215 v 0 0 q -0.0483,-0.369768 -0.19313,-0.618928 v 0 0 q -0.13686,-0.241138 -0.37782,-0.361706 v 0 0 q -0.24098,-0.120565 -0.62695,-0.120565 v 0 0 q -0.5305,0 -0.87613,0.144668 v 0 0 q -0.33752,0.136646 -0.46624,0.249197 v 0 0 q 0.0965,0.297394 0.13685,0.643038 v 0 0 q 0.0483,0.345628 0.0483,0.731457 v 0 3.287537 h -1.04494 v -3.062472 0 q 0,-0.514435 -0.0562,-0.892216 v 0 0 q -0.0562,-0.369766 -0.20108,-0.618927 v 0 0 q -0.13644,-0.241139 -0.3858,-0.361708 v 0 0 q -0.24098,-0.120563 -0.61091,-0.120563 v 0 0 q -0.15281,0 -0.33753,0.01596 v 0 0 q -0.17673,0.008 -0.34549,0.02393 v 0 0 q -0.16079,0.01596 -0.29765,0.0403 v 0 0 q -0.12847,0.02393 -0.17674,0.03232 v 0 4.943363 z m 11.67119,-0.755571 v 0 0 q 0.36985,0 0.65109,-0.01596 v 0 0 q 0.28925,-0.01596 0.48227,-0.06431 v 0 -1.744241 0 q -0.11257,-0.05626 -0.36985,-0.09647 v 0 0 q -0.24896,-0.0403 -0.61088,-0.0403 v 0 0 q -0.23298,0 -0.49839,0.0403 v 0 0 q -0.26531,0.03232 -0.48227,0.136647 v 0 0 q -0.22503,0.104496 -0.36985,0.289374 v 0 0 q -0.14484,0.192903 -0.14484,0.490316 v 0 0 q 0,0.562662 0.36188,0.787725 v 0 0 q 0.36187,0.217041 0.98062,0.217041 z m -0.0965,-5.24077 v 0 0 q 0.63498,0 1.06902,0.160746 v 0 0 q 0.4341,0.160743 0.69132,0.458162 v 0 0 q 0.26531,0.297393 0.37781,0.715383 v 0 0 q 0.11245,0.409943 0.11245,0.900254 v 0 3.657283 0 q -0.12846,0.02393 -0.37782,0.06432 v 0 0 q -0.24096,0.0403 -0.53852,0.07233 v 0 0 q -0.30564,0.03232 -0.65916,0.06431 v 0 0 q -0.35348,0.02392 -0.70733,0.02392 v 0 0 q -0.49029,0 -0.9083,-0.09647 v 0 0 Q 148.79228,23.23104 148.487,23.014003 v 0 0 q -0.30562,-0.225057 -0.47422,-0.578733 v 0 0 q -0.16876,-0.361708 -0.16876,-0.868101 v 0 0 q 0,-0.482282 0.20109,-0.835953 v 0 0 q 0.19311,-0.345627 0.53052,-0.562661 v 0 0 q 0.33751,-0.208979 0.78772,-0.313471 v 0 0 q 0.45013,-0.104496 0.94846,-0.104496 v 0 0 q 0.1608,0 0.32956,0.01596 v 0 0 q 0.16876,0.02393 0.3136,0.04823 v 0 0 q 0.15281,0.03232 0.26531,0.04823 v 0 0 q 0.11257,0.02393 0.16079,0.0403 v 0 -0.297393 0 q 0,-0.257216 -0.0562,-0.514429 v 0 0 q -0.0562,-0.249197 -0.20109,-0.442091 v 0 0 q -0.14483,-0.200963 -0.40175,-0.321532 v 0 0 q -0.24895,-0.112504 -0.6591,-0.112504 v 0 0 q -0.51443,0 -0.9083,0.07233 v 0 0 q -0.3858,0.07233 -0.57874,0.152726 v 0 l -0.12047,-0.868105 v 0 q 0.2011,-0.08841 0.67523,-0.176824 v 0 0 q 0.47422,-0.0804 1.0208,-0.0804 z m 7.76469,5.080012 v -3.697476 0 q -0.18473,-0.160745 -0.5466,-0.305453 v 0 0 q -0.36187,-0.144666 -0.78773,-0.144666 v 0 0 q -0.45011,0 -0.77165,0.160743 v 0 0 q -0.32157,0.160746 -0.52245,0.450133 v 0 0 q -0.20109,0.289374 -0.29722,0.683225 v 0 0 q -0.0887,0.393864 -0.0887,0.843993 v 0 0 q 0,1.020823 0.50637,1.583484 v 0 0 q 0.50642,0.554621 1.35041,0.554621 v 0 0 q 0.426,0 0.71534,-0.0403 v 0 0 q 0.28925,-0.0403 0.4421,-0.08841 z m 0,-4.678111 v -2.95798 l 1.05295,-0.184883 v 8.568495 0 q -0.36186,0.09647 -0.92433,0.200964 v 0 0 q -0.56266,0.104496 -1.29413,0.104496 v 0 0 q -0.6752,0 -1.21372,-0.21704 v 0 0 q -0.54659,-0.217041 -0.92438,-0.610885 v 0 0 q -0.3858,-0.393864 -0.59482,-0.956521 v 0 0 q -0.20907,-0.570696 -0.20907,-1.27804 v 0 0 q 0,-0.675191 0.17674,-1.237851 v 0 0 q 0.17674,-0.562656 0.51443,-0.972595 v 0 0 q 0.33753,-0.401884 0.82791,-0.626963 v 0 0 q 0.49033,-0.225061 1.11729,-0.225061 v 0 0 q 0.50641,0 0.89222,0.136648 v 0 0 q 0.39377,0.136647 0.57874,0.257218 z m 2.52392,2.676648 v 0 0 q 0,-0.771646 0.22502,-1.350381 v 0 0 q 0.22502,-0.58677 0.59484,-0.964556 v 0 0 q 0.36984,-0.385847 0.86005,-0.578736 v 0 0 q 0.48228,-0.184883 0.98865,-0.184883 v 0 0 q 1.18159,0 1.80857,0.731456 v 0 0 q 0.63501,0.739494 0.63501,2.250637 v 0 0 q 0,0.06432 0,0.168805 v 0 0 q 0,0.112503 -0.0168,0.200962 v 0 h -4.00291 v 0 q 0.0642,0.908289 0.53052,1.38253 v 0 0 q 0.45814,0.474246 1.43875,0.474246 v 0 0 q 0.54659,0 0.92438,-0.09647 v 0 0 q 0.37783,-0.09647 0.5707,-0.184884 v 0 l 0.14483,0.876141 v 0 q -0.19311,0.104496 -0.66716,0.21704 v 0 0 q -0.48227,0.112554 -1.08514,0.112554 v 0 0 q -0.76362,0 -1.32624,-0.23312 v 0 0 q -0.55466,-0.23312 -0.91636,-0.635002 v 0 0 q -0.36187,-0.409945 -0.53052,-0.964557 v 0 0 q -0.17672,-0.554621 -0.17672,-1.221777 z m 1.11728,-0.570697 h 2.90172 v 0 q 0.008,-0.707342 -0.35347,-1.165506 v 0 0 q -0.36986,-0.458166 -1.01279,-0.458166 v 0 0 q -0.35349,0 -0.63501,0.144667 v 0 0 q -0.27329,0.136647 -0.46619,0.361706 v 0 0 q -0.19313,0.22506 -0.29723,0.522469 v 0 0 q -0.10454,0.289374 -0.13686,0.594811 z m 7.77275,0.570697 v 0 0 q 0,-0.771646 0.22503,-1.350381 v 0 0 q 0.22501,-0.58677 0.59477,-0.964556 v 0 0 q 0.36985,-0.385847 0.86007,-0.578736 v 0 0 q 0.48228,-0.184883 0.98868,-0.184883 v 0 0 q 1.18161,0 1.80855,0.731456 v 0 0 q 0.635,0.739494 0.635,2.250637 v 0 0 q 0,0.06432 0,0.168805 v 0 0 q 0,0.112503 -0.0168,0.200962 v 0 h -4.0029 v 0 q 0.0642,0.908289 0.53052,1.38253 v 0 0 q 0.45816,0.474246 1.4388,0.474246 v 0 0 q 0.54657,0 0.92436,-0.09647 v 0 0 q 0.37784,-0.09647 0.57069,-0.184884 v 0 l 0.14484,0.876141 v 0 q -0.19311,0.104496 -0.66711,0.21704 v 0 0 q -0.48232,0.112554 -1.08518,0.112554 v 0 0 q -0.76359,0 -1.32624,-0.23312 v 0 0 q -0.55463,-0.23312 -0.91633,-0.635002 v 0 0 q -0.36187,-0.409945 -0.53049,-0.964557 v 0 0 q -0.17676,-0.554621 -0.17676,-1.221777 z m 1.11729,-0.570697 h 2.90171 v 0 q 0.008,-0.707342 -0.35348,-1.165506 v 0 0 q -0.36986,-0.458166 -1.01278,-0.458166 v 0 0 q -0.35349,0 -0.63501,0.144667 v 0 0 q -0.2733,0.136647 -0.46619,0.361706 v 0 0 q -0.19312,0.22506 -0.29722,0.522469 v 0 0 q -0.10454,0.289374 -0.13687,0.594811 z m 7.78076,-5.248805 v 0 0 q 0.4662,0 0.79575,0.07233 v 0 0 q 0.32954,0.06432 0.4662,0.120563 v 0 l -0.19311,0.900254 v 0 q -0.12846,-0.06432 -0.37782,-0.128588 v 0 0 q -0.24938,-0.06431 -0.61092,-0.06431 v 0 0 q -0.73143,0 -1.0208,0.401882 v 0 0 q -0.29722,0.401884 -0.29722,1.077095 v 0 0.506391 h 2.25063 v 0.87614 h -2.25063 v 4.975516 h -1.04495 v -6.382164 0 q 0,-1.125319 0.5546,-1.736207 v 0 0 q 0.5466,-0.618924 1.7282,-0.618924 z m 4.34855,0 v 0 0 q 0.45818,0 0.79575,0.07233 v 0 0 q 0.32955,0.06432 0.46619,0.120563 v 0 l -0.19268,0.900254 v 0 q -0.13686,-0.06432 -0.38582,-0.128588 v 0 0 q -0.24935,-0.06431 -0.60283,-0.06431 v 0 0 q -0.73147,0 -1.02887,0.401882 v 0 0 q -0.28925,0.401884 -0.28925,1.077095 v 0 0.506391 h 2.25063 v 0.87614 h -2.25063 v 4.975516 h -1.04495 v -6.382164 0 q 0,-1.125319 0.5466,-1.736207 v 0 0 q 0.55461,-0.618924 1.7362,-0.618924 z m 7.22617,5.811467 v 0 0 q 0,0.699304 -0.20907,1.261962 v 0 0 q -0.20109,0.56266 -0.56261,0.96456 v 0 0 q -0.36986,0.401882 -0.87615,0.626963 v 0 0 q -0.50642,0.217042 -1.10121,0.217042 v 0 0 q -0.59483,0 -1.10123,-0.217042 v 0 0 q -0.50638,-0.225059 -0.87615,-0.626963 v 0 0 q -0.36187,-0.401882 -0.56261,-0.96456 v 0 0 q -0.20908,-0.562658 -0.20908,-1.261962 v 0 0 q 0,-0.691269 0.20908,-1.253927 v 0 0 q 0.20107,-0.570695 0.56261,-0.972598 v 0 0 q 0.36985,-0.409945 0.87615,-0.626961 v 0 0 q 0.5064,-0.21704 1.10123,-0.21704 v 0 0 q 0.59479,0 1.10121,0.21704 v 0 0 q 0.50637,0.217043 0.87615,0.626961 v 0 0 q 0.36185,0.401881 0.56261,0.972598 v 0 0 q 0.20907,0.562658 0.20907,1.253927 z m -1.09317,0 v 0 0 q 0,-0.988674 -0.45014,-1.567409 v 0 0 q -0.44208,-0.586776 -1.20567,-0.586776 v 0 0 q -0.76365,0 -1.21376,0.586776 v 0 0 q -0.44211,0.578735 -0.44211,1.567409 v 0 0 q 0,0.988671 0.44211,1.567406 v 0 0 q 0.45011,0.578734 1.21376,0.578734 v 0 0 q 0.76359,0 1.20567,-0.578734 v 0 0 q 0.45014,-0.578735 0.45014,-1.567406 z m 4.72632,-3.054435 v 0 0 q 0.13685,0 0.30561,0.01596 v 0 0 q 0.17675,0.02392 0.34552,0.04823 v 0 0 q 0.16876,0.03232 0.30562,0.05626 v 0 0 q 0.14482,0.03232 0.20906,0.04823 v 0 l -0.17675,0.916334 v 0 q -0.12046,-0.04823 -0.41015,-0.104495 v 0 0 q -0.28924,-0.06432 -0.73949,-0.06432 v 0 0 q -0.28925,0 -0.57875,0.06432 v 0 0 q -0.28925,0.05626 -0.37783,0.0804 v 0 4.919255 h -1.04495 v -5.60248 0 q 0.36986,-0.136647 0.92439,-0.257217 v 0 0 q 0.54659,-0.120564 1.23784,-0.120564 z m 3.15893,-1.687977 v 1.81658 h 2.21849 v 0.876142 h -2.21849 v 2.700767 0 q 0,0.442089 0.0723,0.723419 v 0 0 q 0.0642,0.289373 0.20109,0.450126 v 0 0 q 0.13686,0.168805 0.33753,0.23312 v 0 0 q 0.20108,0.06431 0.4742,0.06431 v 0 0 q 0.46621,0 0.75558,-0.104495 v 0 0 q 0.28925,-0.104496 0.40175,-0.152726 v 0 l 0.2011,0.868105 v 0 q -0.16077,0.08038 -0.55461,0.192901 v 0 0 q -0.39378,0.120564 -0.90024,0.120564 v 0 0 q -0.59483,0 -0.98067,-0.152726 v 0 0 q -0.38581,-0.152727 -0.62694,-0.450128 v 0 0 q -0.23299,-0.305453 -0.32955,-0.747531 v 0 0 q -0.0965,-0.450126 -0.0965,-1.036903 v 0 -5.216653 z m 5.44974,6.904633 -0.14482,0.876138 v 0 q -0.97262,-0.02393 -1.3745,-0.417961 v 0 0 q -0.40973,-0.393864 -0.40973,-1.229811 v 0 -7.017163 l 1.05296,-0.184884 v 7.033242 0 q 0,0.265234 0.042,0.434053 v 0 0 q 0.0482,0.168805 0.14482,0.265234 v 0 0 q 0.10454,0.104496 0.27331,0.152726 v 0 0 q 0.16876,0.04823 0.41812,0.08842 z m 0.84399,-2.154186 v 0 0 q 0,-0.771646 0.22501,-1.350381 v 0 0 q 0.22503,-0.58677 0.59479,-0.964556 v 0 0 q 0.36985,-0.385847 0.85203,-0.578736 v 0 0 q 0.49031,-0.184883 0.99672,-0.184883 v 0 0 q 1.1816,0 1.80853,0.731456 v 0 0 q 0.62699,0.739494 0.62699,2.250637 v 0 0 q 0,0.06432 0,0.168805 v 0 0 q 0,0.112503 -0.008,0.200962 v 0 h -4.00291 v 0 q 0.0642,0.908289 0.52249,1.38253 v 0 0 q 0.46619,0.474246 1.44682,0.474246 v 0 0 q 0.54659,0 0.92437,-0.09647 v 0 0 q 0.37784,-0.09647 0.57069,-0.184884 v 0 l 0.14484,0.876141 v 0 q -0.1931,0.104496 -0.66711,0.21704 v 0 0 q -0.48232,0.112554 -1.08517,0.112554 v 0 0 q -0.77165,0 -1.32626,-0.23312 v 0 0 q -0.55461,-0.23312 -0.91632,-0.635002 v 0 0 q -0.36187,-0.409945 -0.53855,-0.964557 v 0 0 q -0.16878,-0.554621 -0.16878,-1.221777 z m 1.10926,-0.570697 h 2.90974 v 0 q 0.008,-0.707342 -0.36189,-1.165506 v 0 0 q -0.36187,-0.458166 -1.00472,-0.458166 v 0 0 q -0.36187,0 -0.635,0.144667 v 0 0 q -0.2733,0.136647 -0.4662,0.361706 v 0 0 q -0.1927,0.22506 -0.29722,0.522469 v 0 0 q -0.10454,0.289374 -0.14483,0.594811 z m 6.86445,2.732918 v 0 0 q 0.64302,0 0.95648,-0.168806 v 0 0 q 0.30564,-0.168805 0.30564,-0.538547 v 0 0 q 0,-0.385805 -0.30564,-0.610885 v 0 0 q -0.29722,-0.22506 -0.99669,-0.506394 v 0 0 q -0.33753,-0.136648 -0.65108,-0.273295 v 0 0 q -0.3052,-0.144667 -0.53047,-0.32955 v 0 0 q -0.22502,-0.192901 -0.36188,-0.466205 v 0 0 q -0.13684,-0.265235 -0.13684,-0.659113 v 0 0 q 0,-0.779684 0.57869,-1.237851 v 0 0 q 0.57069,-0.450127 1.55938,-0.450127 v 0 0 q 0.24937,0 0.49835,0.02393 v 0 0 q 0.24937,0.03232 0.45819,0.07233 v 0 0 q 0.21703,0.03232 0.37782,0.0804 v 0 0 q 0.16079,0.04823 0.25735,0.0804 v 0 l -0.19312,0.900255 v 0 q -0.16875,-0.08841 -0.53047,-0.184883 v 0 0 q -0.36188,-0.09647 -0.86812,-0.09647 v 0 0 q -0.43404,0 -0.76359,0.168804 v 0 0 q -0.32956,0.176823 -0.32956,0.546586 v 0 0 q 0,0.192903 0.0722,0.33761 v 0 0 q 0.0802,0.152727 0.22501,0.265234 v 0 0 q 0.15282,0.120566 0.37783,0.22506 v 0 0 q 0.22503,0.09647 0.54659,0.208981 v 0 0 q 0.40974,0.160745 0.7395,0.31347 v 0 0 q 0.32956,0.152726 0.55461,0.353691 v 0 0 q 0.23299,0.200961 0.35348,0.490315 v 0 0 q 0.12846,0.281314 0.12846,0.699304 v 0 0 q 0,0.811836 -0.60287,1.229813 v 0 0 q -0.60283,0.41796 -1.72011,0.41796 v 0 0 q -0.77165,0 -1.21374,-0.136647 v 0 0 q -0.43406,-0.12863 -0.59484,-0.192902 v 0 l 0.19313,-0.900254 v 0 q 0.17672,0.06432 0.57069,0.200961 v 0 0 q 0.39376,0.136648 1.04492,0.136648 z m 5.02372,0 v 0 0 q 0.64307,0 0.94848,-0.168806 v 0 0 q 0.3136,-0.168805 0.3136,-0.538547 v 0 0 q 0,-0.385805 -0.30563,-0.610885 v 0 0 q -0.30562,-0.22506 -1.00476,-0.506394 v 0 0 q -0.33753,-0.136648 -0.64302,-0.273295 v 0 0 q -0.3136,-0.144667 -0.53853,-0.32955 v 0 0 q -0.22501,-0.192901 -0.36188,-0.466205 v 0 0 q -0.12846,-0.265235 -0.12846,-0.659113 v 0 0 q 0,-0.779684 0.57068,-1.237851 v 0 0 q 0.57074,-0.450127 1.56745,-0.450127 v 0 0 q 0.24097,0 0.49028,0.02393 v 0 0 q 0.24937,0.03232 0.46621,0.07233 v 0 0 q 0.20905,0.03232 0.36985,0.0804 v 0 0 q 0.16877,0.04823 0.25734,0.0804 v 0 l -0.19269,0.900255 v 0 q -0.16876,-0.08841 -0.5305,-0.184883 v 0 0 q -0.3535,-0.09647 -0.86008,-0.09647 v 0 0 q -0.44209,0 -0.77164,0.168804 v 0 0 q -0.32158,0.176823 -0.32158,0.546586 v 0 0 q 0,0.192903 0.0723,0.33761 v 0 0 q 0.0723,0.152727 0.22503,0.265234 v 0 0 q 0.15281,0.120566 0.37783,0.22506 v 0 0 q 0.22501,0.09647 0.53856,0.208981 v 0 0 q 0.41814,0.160745 0.73951,0.31347 v 0 0 q 0.32955,0.152726 0.56261,0.353691 v 0 0 q 0.22501,0.200961 0.35348,0.490315 v 0 0 q 0.12046,0.281314 0.12046,0.699304 v 0 0 q 0,0.811836 -0.60283,1.229813 v 0 0 q -0.60286,0.41796 -1.71211,0.41796 v 0 0 q -0.77968,0 -1.21372,-0.136647 v 0 0 q -0.44209,-0.12863 -0.60287,-0.192902 v 0 l 0.1931,-0.900254 v 0 q 0.18471,0.06432 0.57871,0.200961 v 0 0 q 0.39378,0.136648 1.04495,0.136648 z"/> </svg>